<?xml version="1.0" encoding="utf-8"?>
<!-- Generator: Adobe Illustrator 26.0.3, SVG Export Plug-In . SVG Version: 6.00 Build 0)  -->
<svg version="1.1" id="Capa_1" xmlns="http://www.w3.org/2000/svg" xmlns:xlink="http://www.w3.org/1999/xlink" x="0px" y="0px"
	 viewBox="0 0 595.28 841.89" style="enable-background:new 0 0 595.28 841.89;" xml:space="preserve">
<style type="text/css">
	.st0{fill:#FFFFFF;}
	.st1{fill:#F1E474;}
	.st2{fill:#5DB133;}
	.st3{fill:#535353;}
	.st4{fill:#6A6C6C;}
	.st5{fill:none;stroke:#1E1E1C;stroke-width:3.8344;stroke-miterlimit:10;}
	.st6{fill:#6A6C6C;stroke:#1E1E1C;stroke-width:3.8344;stroke-miterlimit:10;}
	.st7{fill:#535353;stroke:#1E1E1C;stroke-width:3.8344;stroke-miterlimit:10;}
	.st8{fill:#6A6C6C;stroke:#1E1E1C;stroke-width:3.2767;stroke-miterlimit:10;}
	.st9{fill:#535353;stroke:#1E1E1C;stroke-width:3.2767;stroke-miterlimit:10;}
	.st10{fill:none;stroke:#1E1E1C;stroke-width:3.2767;stroke-miterlimit:10;}
	.st11{fill:#6A6C6C;stroke:#1E1E1C;stroke-width:3.2396;stroke-miterlimit:10;}
	.st12{fill:none;stroke:#1E1E1C;stroke-width:3.2396;stroke-miterlimit:10;}
	.st13{fill:#6A6C6C;stroke:#1E1E1C;stroke-width:3.4415;stroke-miterlimit:10;}
	.st14{fill:none;stroke:#1E1E1C;stroke-width:3.4415;stroke-miterlimit:10;}
	.st15{fill:#458489;}
	.st16{fill:#C26B36;}
	.st17{fill:#714E2D;}
	.st18{fill:#836042;}
	.st19{fill:#FCE8E1;}
	.st20{fill:#D61052;}
	.st21{fill:#D5D8E2;}
	.st22{fill:#5A2D17;}
</style>
<g>
	<path class="st0" d="M370.67,307.69c-1.57-0.28-2.7-0.6-3.36-1.74c-0.38-0.66-0.77-1.32-1.13-1.98c-1.61-2.93,0.66-7.62,3.93-8.13
		c1.2-0.19,3.04,0.83,3.81,2.12c1.55,2.58,1.23,6.17-0.91,8.3C372.32,306.95,371.3,307.32,370.67,307.69z"/>
	<path class="st1" d="M296.74,294.96c-7.3-0.18-12.77-3.22-17.22-8.24c-4.38-4.94-6.7-10.77-6.66-17.38
		c0.03-5.04,1.57-9.61,5.19-13.31c4.34-4.41,9.69-5.71,15.58-4.61c10.59,1.99,18.23,11.49,19.75,21.41c0.63,4.1,0.31,8.1-1.41,11.88
		C308.93,291.4,303.66,294.81,296.74,294.96z"/>
	<path class="st0" d="M368.44,295.71c-1.57-0.28-2.7-0.6-3.36-1.74c-0.38-0.66-0.77-1.32-1.13-1.98c-1.61-2.94,0.66-7.62,3.93-8.13
		c1.2-0.19,3.04,0.83,3.81,2.12c1.55,2.58,1.23,6.17-0.91,8.3C370.09,294.97,369.07,295.34,368.44,295.71z"/>
	<g>
		<ellipse class="st2" cx="315.6" cy="530.46" rx="213.16" ry="69.06"/>
		<g>
			<g>
				<path class="st3" d="M425.31,426.72c0,0-9.66,5.21-12.72,8.2c-3.06,2.99-6.11,4.73-6.11,4.73l-14.15,4.19l-7.1,5.95
					c0,0-3.95,3.44-4.32,6.43s-8.97,16.43-2.01,18.81c7.58,2.59,22.93,2.04,22.93,2.04s-1.22-10.8,0.86-12.44
					c2.08-1.64,3.3-7.23,3.42-9.93c0.12-2.7,0.98-5.5,12.35-5.88c11.37-0.39,6.97-6.17,6.97-6.17l2.94-4.63
					C428.37,438,429.84,429.51,425.31,426.72z"/>
				<path class="st4" d="M426.67,426.85c0,0,3.42,6.37,1.96,9.26c-1.47,2.89-3.55,5.4-3.06,8.29c0.49,2.89,0.98,4.15-9.29,4.63
					s-10.15,4.44-10.76,7.91c-0.61,3.47-3.83,8.84-5.05,10.38c-1.22,1.54,0.77,8.81,0.77,8.81s21.16,7.33,36.2,3.95
					c15.04-3.38,18.45-2.61,19.83-21.29c0.9-12.12,0.17-17.62-8.61-23.37C436.81,427.68,426.67,426.85,426.67,426.85z"/>
			</g>
			<g>
				<path class="st5" d="M407.26,439.4c-3.5,1.38-13.9,3.27-17.61,5.77c-6.55,4.41-14.28,21-13.3,27.68
					c0.98,6.69,18.52,2.03,35.15,6.92c16.63,4.89,32.5-1.09,40-3.92c7.5-2.83,6.18-24.98,5.76-30.21
					c-0.66-8.23-20-17.82-28.81-18.85S410.52,438.12,407.26,439.4z"/>
				<path class="st5" d="M401.92,477.4c0,0-2.79-9.48-0.38-11.68c3.91-3.59,3.6-9.19,4.86-12.53c1.27-3.34,7.48-4.27,15.41-4.52
					s1.75-5.77,5.35-8.89c4.23-3.67,0.83-10.61-0.12-13.03"/>
			</g>
		</g>
		<g>
			<path class="st6" d="M123.1,433.38c9.29-1.86,21.15,11.36,27.15,17.04c6,5.68,23.36,10.42,23.99,14.84
				c0.63,4.42,7.89,33.14-1.26,35.98s-60.92,9.78-64.39,7.58c-3.47-2.21-16.41,0.63-19.25-2.53c-2.84-3.16-16.73-13.89-15.47-21.46
				c1.26-7.58,8.35-14.54,14.52-21.15c8.84-9.47,10.73-16.73,12.63-20.52C102.9,439.38,119.94,434.01,123.1,433.38z"/>
			<path class="st7" d="M102.22,508.2c2.61-1.3-0.22-23.88-0.65-30.61c-0.43-6.73,11.07-13.46,14.11-18.67s-1.52-16.5-4.12-21.49
				L101,443.16c0,0-5.21,11.92-6.49,13.68c-1.28,1.76-12,12.96-12,12.96s-9.6,12.32-8.64,16.16c0.96,3.84,5.76,11.52,10.72,16
				c4.96,4.48,8.64,6.08,8.64,6.08L102.22,508.2z"/>
		</g>
		<g>
			<path class="st6" d="M464.17,429.72c8.7-1.74,19.8,10.64,25.41,15.96c5.61,5.32,21.87,9.75,22.46,13.89
				c0.59,4.14,7.39,31.02-1.18,33.68c-8.57,2.66-57.03,9.16-60.28,7.09c-3.25-2.07-15.36,0.59-18.02-2.36
				c-2.66-2.95-15.66-13-14.48-20.09s7.82-13.61,13.59-19.8c8.27-8.86,10.05-15.66,11.82-19.21
				C445.26,435.34,461.22,430.31,464.17,429.72z"/>
			<path class="st7" d="M444.63,499.76c2.44-1.22-0.2-22.35-0.61-28.65c-0.41-6.3,10.36-12.6,13.21-17.48s-1.42-15.44-3.86-20.12
				l-9.88,5.37c0,0-4.88,11.16-6.08,12.81c-1.2,1.65-11.23,12.13-11.23,12.13s-8.99,11.53-8.09,15.13
				c0.9,3.6,5.39,10.79,10.04,14.98s8.09,5.69,8.09,5.69L444.63,499.76z"/>
		</g>
		<g>
			<path class="st8" d="M432.79,473.74c3.65-0.87,8.32,5.32,10.68,7.98c2.36,2.66,9.19,4.88,9.43,6.94
				c0.25,2.07,3.1,15.51-0.5,16.84s-23.96,4.58-25.32,3.55c-1.37-1.03-6.45,0.3-7.57-1.18c-1.12-1.48-6.58-6.5-6.08-10.05
				s3.28-6.81,5.71-9.9c3.48-4.43,4.22-7.83,4.97-9.6C424.85,476.55,431.55,474.04,432.79,473.74z"/>
			<path class="st9" d="M424.58,508.76c1.02-0.61-0.09-11.18-0.26-14.33s4.35-6.3,5.55-8.74s-0.6-7.72-1.62-10.06l-4.15,2.68
				c0,0-2.05,5.58-2.55,6.4s-4.72,6.07-4.72,6.07s-3.78,5.77-3.4,7.56c0.38,1.8,2.27,5.39,4.22,7.49c1.95,2.1,3.4,2.85,3.4,2.85
				L424.58,508.76z"/>
		</g>
		<g>
			<g>
				<path class="st3" d="M430.98,500.15c0,0-2.55,1.4-3.28,2.38c-0.74,0.98-1.51,1.58-1.51,1.58l-4.05,0.88l-1,1.35
					c0,0-1.79,2.16-1.79,3.06c0,0.9-0.99,2.39,1.35,3.7c2.33,1.31,5.43,2.24,5.43,2.24s-0.68-3.16-0.17-3.71
					c0.51-0.55,0.67-2.24,0.61-3.05c-0.05-0.8,0.09-1.66,3.17-2.11s1.7-2.04,1.7-2.04l0.65-1.46
					C432.09,502.98,432.31,500.85,430.98,500.15z"/>
				<path class="st8" d="M432.69,500.3c0,0-0.22,1.25-0.52,2.15c-0.31,0.9-0.79,1.71-0.56,2.55c0.23,0.84,0.4,1.2-2.38,1.65
					c-2.78,0.45-2.62,1.62-2.67,2.66c-0.05,1.05-0.48,2.39-0.76,2.89c-0.28,0.49,0.22,2.93,0.22,2.93s9.26,2.01,13.07,0.14
					c4.06-1.98,4.16-3.41,4.34-6.99c0.18-3.58-0.19-4.23-3.72-6.04C436.16,500.42,432.69,500.3,432.69,500.3z"/>
			</g>
			<g>
				<path class="st10" d="M426.39,504.02c-0.91,0.51-4.35,0.47-4.85,1.69c-0.5,1.21-2.85,3.47-2.37,5.43
					c0.48,1.95,4.99,3.77,9.68,4.73c4.69,0.95,10.06,0.19,12.01-0.88c1.95-1.06,3.58-7.69,2.53-9.89c-1.05-2.2-9.21-5.4-11.64-5.44
					C429.33,499.61,427.24,503.54,426.39,504.02z"/>
				<path class="st10" d="M426.01,515c0,0-0.54-2.69,0.05-3.42c0.95-1.18,0.31-2.43,0.54-3.45s1.9-1.49,4.05-1.8
					c2.15-0.31,0.29-1.76,1.17-2.79c1.03-1.21-0.12-3.17-0.45-3.86"/>
			</g>
		</g>
		<g>
			<g>
				<path class="st3" d="M487.96,476.55c0,0-10.35,7.08-13.63,11.14c-3.28,4.06-6.55,6.42-6.55,6.42l-16.12,1.97l-4.46,5.63
					c0,0-7.86,8.91-8.26,12.97s-4.85,10.35,3.67,17.43s20.18,12.84,20.18,12.84s-1.31-14.68,0.92-16.9
					c2.23-2.23,3.54-9.83,3.67-13.5s1.05-7.47,13.24-7.99c12.19-0.52,7.47-8.39,7.47-8.39l3.15-6.29
					C491.24,491.89,492.81,480.36,487.96,476.55z"/>
				<path class="st6" d="M489.66,476.95c0,0,3.67,8.65,2.1,12.58c-1.57,3.93-3.8,7.34-3.28,11.27s1.05,5.63-9.96,6.29
					c-11.01,0.66-10.88,6.03-11.53,10.75c-0.66,4.72-2.88,10.61-4.19,12.71c-1.31,2.1-0.39,13.37-0.39,13.37s23.46,11.27,39.58,6.68
					c16.12-4.59,28.83-12.97,31.06-29.09c2.23-16.12,1.05-19.26-11.93-29.22C508.14,482.32,489.66,476.95,489.66,476.95z"/>
			</g>
			<g>
				<path class="st5" d="M468.62,493.79c-3.75,1.88-17.12,0-19.57,5.24c-2.45,5.24-12.58,14.33-11.53,23.41
					c1.05,9.09,17.82,19.57,35.64,26.21c17.82,6.64,36.34,0,44.38-3.84c8.04-3.84,19.92-27.26,16.77-37.74
					c-3.14-10.48-33.55-29-42.98-30.4C481.9,475.27,472.11,492.05,468.62,493.79z"/>
				<path class="st5" d="M462.48,543.35c0,0-0.94-12.46,1.64-15.46c4.19-4.87,2.22-10.85,3.58-15.38c1.36-4.53,8.01-5.81,16.51-6.15
					s1.88-7.83,5.73-12.08c4.53-4.98,0.89-14.41-0.13-17.7"/>
			</g>
		</g>
		<g>
			<path class="st6" d="M484.98,513.83c8.7-1.74,19.8,10.64,25.41,15.96c5.61,5.32,21.87,9.75,22.46,13.89
				c0.59,4.14,7.39,31.02-1.18,33.68c-8.57,2.66-57.03,9.16-60.28,7.09c-3.25-2.07-15.36,0.59-18.02-2.36
				c-2.66-2.95-15.66-13-14.48-20.09c1.18-7.09,7.82-13.61,13.59-19.8c8.27-8.86,10.05-15.66,11.82-19.21
				C466.07,519.44,482.03,514.42,484.98,513.83z"/>
			<path class="st7" d="M465.44,583.87c2.44-1.22-0.2-22.35-0.61-28.65s10.36-12.6,13.21-17.48c2.85-4.88-1.42-15.44-3.86-20.12
				l-9.88,5.37c0,0-4.88,11.16-6.08,12.81c-1.2,1.65-11.23,12.13-11.23,12.13s-8.99,11.53-8.09,15.13
				c0.9,3.6,5.39,10.79,10.04,14.98s8.09,5.69,8.09,5.69L465.44,583.87z"/>
		</g>
		<g>
			<g>
				<path class="st3" d="M84.99,474.43c0,0-6.65,6.72-8.49,10.2s-3.93,5.69-3.93,5.69l-11.65,3.77l-2.49,4.81
					c0,0-4.54,7.73-4.25,10.79c0.29,3.06-2.1,8.36,5.22,12.38c7.32,4.02,16.78,6.61,16.78,6.61s-3.08-10.68-1.75-12.65
					c1.33-1.97,1.21-7.78,0.78-10.52c-0.43-2.74-0.3-5.68,8.65-7.82s4.33-7.28,4.33-7.28l1.43-5.11
					C89.62,485.31,89.13,476.55,84.99,474.43z"/>
				<path class="st6" d="M87.56,475.16c0,0,2.7,5.2,2.1,8.33s-1.76,5.98-0.81,8.81c0.95,2.84,1.58,4.02-6.47,6.09
					c-8.06,2.06-7.19,6.02-7,9.61c0.19,3.59-0.61,8.27-1.28,10.01s1.63,9.95,1.63,9.95s18.98,4.98,30.26-0.73s19.48-13.74,18.82-26
					c-0.66-12.25-1.99-14.41-13.02-19.93S87.56,475.16,87.56,475.16z"/>
			</g>
			<g>
				<path class="st5" d="M73.14,489.97c-2.51,1.93-12.68,2.46-13.74,6.69s-7.26,12.41-5.18,18.99c2.08,6.58,16,11.93,30.15,14.29
					s26.91-5.21,32.31-9.21s10.84-23.04,7-30.35c-3.83-7.31-29-16.66-36.19-16.34C80.32,474.35,75.48,488.17,73.14,489.97z"/>
				<path class="st5" d="M75.71,527.54c0,0-2.49-9.09-1.01-11.68c2.4-4.21,0.09-8.35,0.44-11.9s5.1-5.45,11.34-6.92
					c6.24-1.47,0.27-6.07,2.51-9.76c2.64-4.34-1.41-10.8-2.64-13.09"/>
			</g>
		</g>
		<g>
			<path class="st6" d="M96.17,507.99c5.57-1.11,12.68,6.81,16.28,10.22c3.6,3.41,14.01,6.25,14.38,8.9
				c0.38,2.65,4.73,19.87-0.76,21.58c-5.49,1.7-36.53,5.87-38.61,4.54s-9.84,0.38-11.55-1.51c-1.7-1.89-10.03-8.33-9.27-12.87
				c0.76-4.54,5.01-8.72,8.71-12.68c5.3-5.68,6.44-10.03,7.57-12.3C84.06,511.59,94.28,508.37,96.17,507.99z"/>
			<path class="st7" d="M83.65,552.86c1.56-0.78-0.13-14.32-0.39-18.35s6.64-8.07,8.46-11.19c1.82-3.12-0.91-9.89-2.47-12.89
				l-6.33,3.44c0,0-3.13,7.15-3.89,8.2c-0.77,1.06-7.2,7.77-7.2,7.77s-5.76,7.39-5.18,9.69s3.45,6.91,6.43,9.6
				c2.97,2.69,5.18,3.65,5.18,3.65L83.65,552.86z"/>
		</g>
		<g>
			<g>
				<path class="st3" d="M457.93,532.07c0,0-2.52,1.39-3.25,2.35c-0.73,0.97-1.49,1.56-1.49,1.56l-4,0.87l-0.99,1.34
					c0,0-1.77,2.14-1.77,3.02c0,0.89-0.97,2.36,1.33,3.66c2.31,1.29,5.37,2.22,5.37,2.22s-0.67-3.13-0.17-3.67
					c0.51-0.54,0.66-2.22,0.6-3.01s0.09-1.64,3.14-2.09c3.05-0.45,1.68-2.01,1.68-2.01l0.64-1.44
					C459.03,534.87,459.24,532.76,457.93,532.07z"/>
				<path class="st11" d="M459.62,532.22c0,0-0.21,1.23-0.52,2.12c-0.3,0.89-0.78,1.69-0.56,2.52c0.22,0.83,0.4,1.19-2.35,1.63
					c-2.75,0.44-2.59,1.6-2.64,2.63c-0.05,1.04-0.47,2.37-0.75,2.86s0.22,2.89,0.22,2.89s9.15,1.98,12.92,0.14
					c4.01-1.96,4.12-3.37,4.3-6.91c0.18-3.54-0.19-4.18-3.68-5.97C463.05,532.34,459.62,532.22,459.62,532.22z"/>
			</g>
			<g>
				<path class="st12" d="M453.39,535.9c-0.9,0.51-4.3,0.47-4.79,1.67s-2.82,3.43-2.35,5.36c0.48,1.93,4.94,3.73,9.57,4.67
					c4.63,0.94,9.95,0.18,11.88-0.87c1.93-1.05,3.54-7.6,2.5-9.78c-1.04-2.17-9.11-5.33-11.51-5.38
					C456.29,531.54,454.23,535.43,453.39,535.9z"/>
				<path class="st12" d="M453.01,546.75c0,0-0.53-2.66,0.05-3.38c0.94-1.17,0.3-2.4,0.54-3.41c0.23-1.01,1.88-1.47,4-1.78
					c2.13-0.31,0.29-1.74,1.16-2.76c1.02-1.2-0.12-3.13-0.45-3.81"/>
			</g>
		</g>
		<g>
			<g>
				<path class="st3" d="M418.37,540.77c0,0-9.08,6.46-11.56,10.37c-2.48,3.91-5.27,6.48-5.27,6.48l-15.39,5.06l-3.36,5.4
					c0,0-6.11,8.72-5.78,12c0.33,3.28-2.91,9.2,6.64,12.9c9.56,3.71,21.95,5.7,21.95,5.7s-3.86-11.25-2.07-13.49
					c1.78-2.24,1.73-8.5,1.21-11.41s-0.29-6.1,11.51-9.17c11.8-3.07,5.82-8.22,5.82-8.22l1.96-5.63
					C424.04,550.75,423.76,542.7,418.37,540.77z"/>
				<path class="st13" d="M421.03,539.38c-0.46-0.01-0.79,0.42-0.55,0.73c1.32,1.72,4.31,5.99,3.65,8.68
					c-0.84,3.43-2.42,6.6-1.22,9.57c1.2,2.98,2.01,4.2-8.61,7.12c-10.63,2.92-9.56,7.11-9.37,10.96s-0.95,8.97-1.86,10.91
					c-0.91,1.93,1.96,10.59,1.96,10.59s24.87,3.74,39.8-3.38c14.92-7.12,25.86-16.49,25.2-29.64s-2.36-15.37-16.77-20.37
					C440.97,540.28,425.36,539.51,421.03,539.38z"/>
			</g>
			<g>
				<path class="st14" d="M402.3,557.18c-3.33,2.29-16.71,3.73-18.18,8.39c-1.47,4.65-9.76,14.01-7.14,20.92
					c2.62,6.91,20.83,11.5,39.39,12.83c18.56,1.33,35.47-7.93,42.64-12.7c7.17-4.77,14.65-25.77,9.74-33.33
					c-4.91-7.56-37.83-15.49-47.29-14.53S405.4,555.05,402.3,557.18z"/>
				<path class="st14" d="M405.02,597.49c0,0-3.11-9.59-1.12-12.51c3.24-4.74,0.26-9.01,0.79-12.87s6.8-6.31,15.03-8.43
					c8.23-2.12,0.46-6.57,3.47-10.74"/>
			</g>
		</g>
		<g>
			<path class="st6" d="M370.28,566.97c3.61-0.86,8.22,5.26,10.55,7.89s9.08,4.82,9.33,6.87c0.25,2.04,3.07,15.34-0.49,16.65
				c-3.56,1.31-23.69,4.53-25.04,3.51s-6.38,0.29-7.49-1.17s-6.5-6.43-6.01-9.93s3.25-6.73,5.65-9.79c3.44-4.38,4.17-7.74,4.91-9.49
				C362.42,569.74,369.05,567.26,370.28,566.97z"/>
			<path class="st7" d="M362.16,601.59c1.01-0.6-0.08-11.05-0.25-14.16c-0.17-3.11,4.3-6.23,5.49-8.64s-0.59-7.64-1.6-9.95
				l-4.1,2.65c0,0-2.03,5.52-2.52,6.33c-0.5,0.81-4.67,6-4.67,6s-3.73,5.7-3.36,7.48s2.24,5.33,4.17,7.41
				c1.93,2.07,3.36,2.81,3.36,2.81L362.16,601.59z"/>
		</g>
		<g>
			<path class="st6" d="M124.69,531.8c3.61-0.86,8.22,5.26,10.55,7.89c2.33,2.63,9.08,4.82,9.33,6.87
				c0.25,2.04,3.07,15.34-0.49,16.65c-3.56,1.31-23.69,4.53-25.04,3.51c-1.35-1.02-6.38,0.29-7.49-1.17
				c-1.1-1.46-6.5-6.43-6.01-9.93c0.49-3.51,3.25-6.73,5.65-9.79c3.44-4.38,4.17-7.74,4.91-9.49S123.46,532.09,124.69,531.8z"/>
			<path class="st7" d="M116.57,566.42c1.01-0.6-0.08-11.05-0.25-14.16c-0.17-3.11,4.3-6.23,5.49-8.64c1.18-2.41-0.59-7.64-1.6-9.95
				l-4.1,2.65c0,0-2.03,5.52-2.52,6.33c-0.5,0.81-4.67,6-4.67,6s-3.73,5.7-3.36,7.48c0.37,1.78,2.24,5.33,4.17,7.41
				c1.93,2.07,3.36,2.81,3.36,2.81L116.57,566.42z"/>
		</g>
		<g>
			<g>
				<path class="st3" d="M141.15,555.6c0,0-2.52,1.39-3.25,2.35s-1.49,1.56-1.49,1.56l-4,0.87l-0.99,1.34c0,0-1.77,2.14-1.77,3.02
					c0,0.89-0.97,2.36,1.33,3.66c2.31,1.29,5.37,2.22,5.37,2.22s-0.67-3.13-0.17-3.67c0.51-0.54,0.66-2.22,0.6-3.01
					c-0.05-0.79,0.09-1.64,3.14-2.09s1.68-2.01,1.68-2.01l0.64-1.44C142.25,558.39,142.46,556.28,141.15,555.6z"/>
				<path class="st11" d="M142.84,555.74c0,0-0.21,1.23-0.52,2.12c-0.3,0.89-0.78,1.69-0.56,2.52c0.22,0.83,0.4,1.19-2.35,1.63
					s-2.59,1.6-2.64,2.63c-0.05,1.04-0.47,2.37-0.75,2.86c-0.28,0.49,0.22,2.89,0.22,2.89s9.15,1.98,12.92,0.14
					c4.01-1.96,4.12-3.37,4.3-6.91c0.18-3.54-0.19-4.18-3.68-5.97C146.27,555.86,142.84,555.74,142.84,555.74z"/>
			</g>
			<g>
				<path class="st12" d="M136.61,559.42c-0.9,0.51-4.3,0.47-4.79,1.67s-2.82,3.43-2.35,5.36c0.48,1.93,4.94,3.73,9.57,4.67
					s9.95,0.18,11.88-0.87c1.93-1.05,3.54-7.6,2.5-9.78c-1.04-2.17-9.11-5.33-11.51-5.38C139.51,555.06,137.45,558.95,136.61,559.42
					z"/>
				<path class="st12" d="M136.24,570.27c0,0-0.53-2.66,0.05-3.38c0.94-1.17,0.3-2.4,0.54-3.41c0.23-1.01,1.88-1.47,4-1.78
					c2.13-0.31,0.29-1.74,1.16-2.76c1.02-1.2-0.12-3.13-0.45-3.81"/>
			</g>
		</g>
		<path class="st0" d="M384.26,310.12c-0.33,3.73-0.96,7.26-2.72,10.53c-0.43,0.8-0.77,1.85-1.92,1.49
			c-1.18-0.37-0.86-1.51-0.67-2.34c1.06-4.75,1.07-9.53,0.75-14.35c-0.09-1.39,0.27-1.81,1.27-2.03c1.11-0.24,1.82,0.3,2.08,1.26
			C383.52,306.48,383.86,308.31,384.26,310.12z"/>
		<path class="st15" d="M189.75,581.21c-1.25-0.15-2.54-0.26-3.82-0.46c-13.82-2.17-27.37-5.4-40.48-10.33
			c-3.57-1.34-2.99-0.61-2.98-4.45c0.02-5.52,0.03-11.04,0.3-16.55c0.14-2.77,0.72-5.54,1.35-8.25c3.61-15.49,8.93-30.39,16.06-44.6
			c4.93-9.83,11.21-18.82,17.75-27.64c4.76-6.42,10.74-11.46,17.09-16.23c3.02-2.27,6.04-2.18,9.27-1.75
			c3.76,0.51,7.28,1.9,10.7,3.52c4.3,2.04,8.49,4.25,12.1,7.42c0.63,0.55,1.59,0.71,2.37,1.11c1.92,0.98,3.82,1.98,5.72,2.99
			c0.16,0.08,0.23,0.33,0.33,0.52c3.92,7.55,7.92,15.07,10.18,23.35c0.72,2.64,1.24,5.29,1.27,8.03c0.02,1.54,1.57,3.31,3.11,3.26
			c2.51-0.08,5.02-0.26,7.5-0.59c4.92-0.65,9.71-1.88,14.37-3.65c4.02-1.54,4.55-2.23,4.21-6.49c-0.12-1.5-0.54-2.97-0.85-4.63
			c0.59,0.23,1.03,0.36,1.45,0.56c8.72,4.08,17.5,8.05,25.82,12.95c0.41,0.24,0.88,0.5,1.34,0.53c0.33,0.02,0.94-0.26,0.99-0.5
			c0.38-1.8,2.15-3.02,1.93-5.13c-0.19-1.79,0.18-3.63,0.02-5.42c-0.64-7.3-1.43-14.59-2.06-21.89c-0.15-1.79-0.05-3.64,0.23-5.41
			c0.33-2.1,1.93-3.28,3.99-3.68c2.76-0.54,5.2-0.21,7.41,1.68c2.81,2.41,5.7,4.72,8.59,7.03c2.44,1.96,4.58,4.07,5.99,7
			c1.76,3.65,3.83,7.12,4.38,11.24c0.28,2.1,1.13,2.56,3.2,2.05c2.3-0.56,4.58-1.3,6.91-1.63c3.17-0.46,6.39-0.6,9.58-0.88
			c0.35-0.03,0.73,0.07,1.04-0.04c2.56-0.86,3.89,0.62,5.04,2.56c3.34,5.65,6.71,11.28,10.09,16.91c0.46,0.76,1.07,1.43,1.57,2.18
			c0.26,0.38,0.41,0.83,0.62,1.24c0.59,1.11,1.1,2.37,2.6,2.42c1.39,0.04,2.38-0.64,2.85-2.01c0.08-0.23,0.3-0.45,0.51-0.59
			c1.43-0.97,1.39-0.94,0.82-2.35c-1.78-4.36-4.22-8.33-6.92-12.16c-3.1-4.39-6.18-8.79-9.38-13.33c0.32-0.62,0.62-1.32,1.02-1.95
			c3.6-5.8,6-12.11,7.85-18.64c0.3-1.07,0.41-2.12-1.11-2.42c-0.21-0.04-0.37-0.36-0.52-0.58c-0.6-0.84-1.18-1.7-1.91-2.75
			c2.8-2.25,5.19-5.1,6.76-8.93c0.61,0.62,1.13,1.11,1.61,1.64c1.73,1.9,1.87,1.91,4.01,0.03c2.16,2.92,4.37,5.78,6.45,8.73
			c1.36,1.94,2.62,3.97,3.75,6.05c5.89,10.86,11.7,21.76,16.17,33.31c0.55,1.43,0.54,2.53-0.18,3.92
			c-2.6,4.98-6.03,9.21-10.49,12.62c-0.75,0.57-1.49,0.91-2.47,0.91c-2.86,0-5.5,0.81-7.93,2.33c-1.24,0.78-2.49,1.56-3.71,2.37
			c-1.75,1.16-3.47,2.37-4,4.3c-1.93-0.22-3.69-0.42-5.65-0.64c-1.9-2.79-5.2-3.72-8.36-2.14c-2.7,1.35-3.92,3.54-3.31,5.42
			c-1.56,2.45-3,4.72-4.59,7.22c-0.39-0.12-1.12-0.28-1.81-0.56c-5.78-2.32-11.49-1.74-17.16,0.36c-1.63,0.6-2.87,1.69-3.72,3.23
			c-2.66-2.77-4.17-3.64-10.08-0.28c-0.46-0.4-0.96-0.85-1.47-1.3c-2.3-2.04-4.54-4.14-6.91-6.09c-5.98-4.92-13.09-7.34-20.49-9.05
			c-2.45-0.57-4.89-1.17-7.35-1.64c-1.43-0.27-2.9-0.4-4.35-0.44c-3.21-0.1-6.43-0.26-9.63-0.09c-2.78,0.14-5.55,0.6-8.28,1.13
			c-1.25,0.24-2-0.01-2.61-1.05c-0.64-1.08-1.42-2.08-1.93-3.22c-0.41-0.91-0.99-1.46-1.88-1.81c-1.37-0.54-1.76-0.43-2.74,0.6
			c-0.55,0.58-1.19,1.19-1.92,1.48c-1.94,0.76-3.95,1.36-5.94,1.99c-0.32,0.1-0.7,0.08-1.03,0.03c-5.25-0.82-10.51-1.42-15.84-1.08
			c-0.18,0.01-0.36-0.13-0.88-0.32c0.72-0.59,1.27-1.05,1.84-1.5c2.32-1.84,4.31-3.97,5.77-6.56c0.65-1.15,1.04-2.35,0.69-4.17
			c-1.95,2.27-3.65,4.24-5.52,6.41c0.13-2.12,0.45-3.94,0.3-5.72c-0.15-1.84-0.77-3.63-1.43-5.45c-0.73,6.03-2.16,11.81-4.75,17.42
			c-1.21,0.06-2.38,0.11-3.55,0.18c-1.39,0.08-2.78,0.21-4.18,0.27c-0.54,0.02-1.16,0.02-1.62-0.21
			c-6.94-3.51-14.38-4.97-22.06-4.91c-5.64,0.04-11.28,0.67-16.92,1.11c-0.73,0.06-1.51,0.37-2.1,0.8c-0.34,0.24-0.51,1-0.41,1.45
			c0.07,0.31,0.73,0.68,1.13,0.68c1.81,0.01,3.63-0.06,5.44-0.17c7.13-0.42,14.24-0.44,21.32,0.6c1.77,0.26,3.51,0.77,5.24,1.55
			c-2.76,0.44-5.52,0.86-8.27,1.31c-7.31,1.21-14.49,2.92-21.52,5.28c-0.92,0.31-1.81,0.73-2.64,1.23
			c-0.78,0.46-1.25,1.24-0.75,2.13c0.54,0.96,1.28,0.55,2.15,0.25c3.03-1.02,6.1-1.97,9.21-2.75c7.52-1.88,15.19-2.99,22.87-3.97
			c0.46-0.06,0.93-0.01,1.73-0.01c-0.53,0.61-0.86,1.01-1.21,1.4c-5.68,6.47-11.07,13.14-14.53,21.14
			c-2.92,6.75-5.36,13.65-6.3,20.97c-0.43,3.38-0.43,6.82-0.67,10.23C190.31,574.19,190.03,577.58,189.75,581.21z"/>
		<path class="st15" d="M259.5,269.96c-7.05,8.07-8.31,17.12-4.91,26.74c3.42,9.68,10.29,15.72,20.84,17.66
			c-0.51,0.3-0.86,0.52-1.23,0.74c-2.77,1.62-5.68,3.06-8.28,4.91c-8.26,5.86-16.54,11.69-24.55,17.88
			c-7.51,5.8-14.73,12-22.01,18.1c-6.48,5.42-12.9,10.91-19.31,16.42c-3.47,2.99-7.14,5.61-11.53,7.06
			c-1.41,0.47-2.22,1.33-2.39,2.81c-0.16,1.39,0.66,2.17,2,1.8c0.53-0.14,1.02-0.43,1.52-0.69c3.5-1.76,6.81-3.81,9.88-6.27
			c3.98-3.18,8.15-6.12,12.09-9.36c4.86-3.99,9.64-8.07,14.3-12.29c11-9.95,22.62-19.1,34.89-27.42c4.68-3.17,9.37-6.34,13.99-9.59
			c1.36-0.95,2.62-2.1,3.74-3.33c0.95-1.03,1.97-1.34,3.14-0.81c0.85,0.38,1.42,0.1,2.14-0.24c3.14-1.51,6.3-2.99,9.47-4.44
			c0.63-0.29,1.34-0.36,2.01-0.57c1.93-0.6,3.93-1.04,5.75-1.87c2.9-1.32,5.92-2.02,9.05-2.43c0.69-0.09,1.44-0.1,2.04-0.4
			c0.47-0.23,1.09-0.9,1.02-1.28c-0.07-0.43-0.78-1.01-1.27-1.07c-0.94-0.12-1.93,0.07-3.24,0.15c1.18-1.51,2.18-2.8,3.27-4.2
			c1.66,2.15,3.27,4.16,4.79,6.24c1.06,1.45,2.32,2.53,3.97,3.29c4.03,1.86,8.01,3.81,12.02,5.73c-2.15,0.38-4.4,0.88-6.67,1.16
			c-10.55,1.29-20.28,4.98-29.56,10c-3.13,1.69-6.05,3.77-9.23,5.35c-9.56,4.76-17.75,11.6-26.6,17.43
			c-4.35,2.87-8.42,6.25-12.29,9.76c-7.86,7.14-15.2,14.8-22.38,22.64c-3.41,3.72-7.71,6.64-11.75,9.73
			c-4.18,3.18-8.81,5.66-13.63,7.73c-6.66,2.86-13.2,6.05-20.3,7.77c-1.27,0.31-2.56,0.51-3.82,0.76c-0.09-0.37-0.19-0.53-0.14-0.63
			c2.32-4.98,3.27-10.35,4.61-15.62c0.62-2.43,0.65-4.85,0.26-7.27c-1.07-6.61-2.32-13.19-3.32-19.81
			c-0.69-4.62-1.12-9.28-1.59-13.93c-0.24-2.36-0.38-4.73-0.45-7.1c-0.22-6.82,1.18-13.28,4.21-19.43c1.74-3.53,3.68-6.85,6.32-9.81
			c2.65-2.97,5.17-6.06,7.6-9.21c4.2-5.44,9.6-9.54,15.03-13.59c11.03-8.23,23.22-14.14,36.53-17.64
			C249.98,270.36,254.57,269.96,259.5,269.96z"/>
		<path class="st15" d="M456.1,374.85c-0.21,2.16-0.34,4.16-0.6,6.15c-1.39,10.58-2.94,21.14-5.18,31.58
			c-0.22,1-0.67,1.76-1.47,2.42c-8.92,7.29-17.77,14.67-26.74,21.9c-8.18,6.58-16.84,12.43-26.48,16.72
			c-0.95,0.42-1.86,0.95-2.9,1.48c-0.33-0.5-0.72-1.07-1.09-1.65c-3.49-5.41-7.3-10.57-11.98-15.04c-0.7-0.67-1.28-1.45-2.4-1.55
			c-0.35-0.03-0.77-0.53-0.97-0.92c-2.62-5.08-5.21-10.19-7.8-15.29c-0.12-0.24-0.17-0.53-0.25-0.79c-1.44-4.87-2.7-6.19-7.48-7.68
			c0.09-0.51,0.18-1.03,0.29-1.56c0.66-3.14,1.38-6.26,1.97-9.41c0.24-1.29,0.49-2.68,0.28-3.94c-0.33-1.98,0.57-3.38,1.38-5.01
			c1.48-2.98,3.57-4.79,6.82-5.79c3.98-1.23,7.76-3.11,11.65-4.66c0.96-0.39,1.6-0.97,2.1-1.89c2.08-3.83,2.11-3.82,6.45-5.15
			c1.88-0.58,2.03-0.82,1.36-2.64c-0.43-1.18-0.91-2.35-1.48-3.46c-0.78-1.5-1.16-2.96-0.3-4.55c0.16-0.3,0.18-0.67,0.31-1.21
			C411.55,374.65,433.29,376.58,456.1,374.85z M409.4,404.7c0.06-1.52-0.73-2.44-1.48-3.35c-5.01-6.01-9.7-12.25-13.95-18.82
			c-0.19-0.29-0.34-0.67-0.61-0.83c-0.44-0.27-0.98-0.56-1.46-0.54c-1.54,0.08-1.99,0.81-1.54,2.42c1.75,6.26,4.05,12.31,7.12,18.05
			c0.52,0.98,1.1,1.95,1.74,2.86c1.06,1.48,2.74,2.1,4.58,1.8c-0.71-0.82-1.62-1.54-2.11-2.48c-2.07-3.95-4.02-7.96-5.99-11.96
			c-0.23-0.47-0.37-1-0.55-1.5c0.6,0.35,0.99,0.81,1.32,1.31c2.85,4.26,6.33,7.98,9.91,11.61
			C407.17,404.06,407.99,404.79,409.4,404.7z"/>
		<path class="st15" d="M305.84,455.92c-3.36,1.86-4.23,4.96-4.08,8.39c0.18,4.18,0.56,8.35,0.91,12.53
			c0.48,5.7,1.38,11.37,1.1,17.12c-0.04,0.93-0.23,1.85-0.36,2.85c-3.05-1.73-5.75-3.47-8.62-4.87
			c-12.23-5.95-24.46-11.91-36.78-17.66c-9.38-4.37-18.45-9.28-27.23-14.73c-0.86-0.53-1.89-0.79-2.83-1.21
			c-0.43-0.19-0.86-0.41-1.23-0.7c-6.46-5.08-13.63-8.69-21.67-10.47c-3.47-0.77-6.93-0.65-10.35,0.37
			c-0.64,0.19-1.28,0.37-2.24,0.65c2.8-3.88,3.88-8.08,5.26-12.5c0.71,0.68,1.26,1.25,1.86,1.76c1.91,1.62,3.66,3.53,5.81,4.74
			c3.76,2.1,7.73,3.83,11.68,5.58c11.7,5.18,24.06,7.92,36.66,9.82c9.03,1.36,18.07,1.23,27.15,0.95
			c7.02-0.21,13.88-1.29,20.73-2.59c1.34-0.25,2.72-0.33,4.07-0.49C305.74,455.62,305.79,455.77,305.84,455.92z"/>
		<path class="st16" d="M218.51,583.13c-8.77-0.39-17.26-0.46-25.77-1.5c0-1.15-0.07-2.19,0.01-3.21c0.33-4.03,0.86-8.06,1.03-12.1
			c0.29-6.92,2.09-13.47,4.29-19.98c3.36-9.95,9.19-18.28,16.39-25.76c1.34-1.4,2.81-2.68,4.25-3.98c0.23-0.2,0.62-0.3,0.94-0.32
			c7.81-0.39,15.62-0.85,23.43,0.04c0.06,0.01,0.12,0.06,0.36,0.18c-0.31,0.36-0.54,0.76-0.88,1.02
			c-8.26,6.37-13.22,15.01-16.81,24.56c-2.14,5.68-4.21,11.4-5.41,17.37c-1.33,6.59-1.7,13.29-1.82,19.99
			C218.49,580.54,218.51,581.66,218.51,583.13z"/>
		<path class="st16" d="M391.88,341.1c0.6,0.31,1.04,0.5,1.43,0.75c7.12,4.58,15.09,6.84,23.31,8.26
			c9.33,1.62,18.76,1.54,28.19,1.33c4.54-0.1,9.05-0.56,13.47-1.65c0.19-0.05,0.4-0.01,0.81-0.01c-0.89,7.23-1.78,14.39-2.7,21.82
			c-1.74,0.22-3.44,0.57-5.15,0.64c-8.31,0.34-16.59,0.13-24.89-0.57c-9.89-0.83-19.09-3.88-28.1-7.74
			c-1.85-0.79-3.57-1.89-5.34-2.87c-0.88-0.48-1.18-1.2-1.17-2.24c0.06-5.44,0.04-10.88,0.05-16.32
			C391.81,342.12,391.85,341.72,391.88,341.1z"/>
		<path class="st15" d="M459.32,346.53c-3.28,0.48-6.91,1.15-10.57,1.51c-8.5,0.81-17.02,0.63-25.51-0.03
			c-10.75-0.83-21.01-3.53-30.42-8.98c-0.43-0.25-1-0.75-1-1.15c-0.07-3.9-0.24-7.82,0.98-11.62c0.06-0.19,0.19-0.36,0.28-0.52
			c0.17,0.04,0.33,0.03,0.42,0.1c5.67,5.12,12.48,7.45,19.97,8.04c7.89,0.63,15.75,0.02,23.59-0.78c4.99-0.51,9.98-1.1,14.94-1.82
			c2.61-0.38,5.17-1.12,7.74-1.72c0.6-0.14,1.19-0.34,1.86-0.54c0.98,1.04,1.93,2.04,3.01,3.19
			C462.9,336.82,461.18,341.48,459.32,346.53z"/>
		<path class="st15" d="M237.68,584.65c-0.54-0.05-0.78,0-0.93-0.09c-1.89-1.22-4.01-0.86-6.08-0.93c-3.2-0.1-6.4-0.25-9.71-0.39
			c-0.07-0.45-0.21-0.84-0.19-1.23c0.44-7.45,0.81-14.92,2.5-22.21c1.71-7.34,4.11-14.5,7.22-21.36
			c3.42-7.52,8.12-14.15,14.99-19.02c0.89-0.63,1.63-1.47,2.65-2.41c0.18,0,0.74-0.16,1.13,0.03c1.61,0.81,2.98,0.19,4.34-0.6
			c1.69-0.98,3.35-1.99,5.18-3.08c0.71,1.09,1.46,2.23,2.28,3.48c-0.35,0.42-0.67,0.86-1.03,1.25c-1.52,1.63-3.05,3.26-4.59,4.88
			c-7.51,7.91-12.39,17.24-15.39,27.69c-2.23,7.77-3.49,15.64-3.65,23.7c-0.06,2.93,0.21,5.85,1.1,8.68
			C237.62,583.49,237.6,583.97,237.68,584.65z"/>
		<path class="st16" d="M249.42,498.29c0.51-7.87-2.78-14.73-5.5-21.71c-0.95-2.45-2.23-4.77-3.36-7.16
			c0.12-0.05,0.28-0.16,0.36-0.12c6.65,3.7,13.6,6.77,20.57,9.79c3.13,1.36,6.16,2.96,9.27,4.37c1.23,0.56,2,1.19,2.11,2.72
			c0.15,2.2,0.66,4.38,1.02,6.65C265.92,496.01,257.87,497.77,249.42,498.29z"/>
		<path class="st17" d="M335.76,469.82c1.95-0.93,4.03-1.89,6.08-2.92c2.96-1.5,5.41-3.65,7.69-6.05c1.81-1.91,2.7-4.04,2.39-6.63
			c-0.28-2.25,0.87-4.13,1.38-6.65c0.66,1.34,1.25,2.23,1.54,3.21c1.6,5.42,3.2,10.85,2.91,16.6c-0.02,0.42-0.09,0.88,0.06,1.24
			c0.16,0.39,0.65,1,0.84,0.95c0.44-0.12,0.93-0.51,1.14-0.92c0.2-0.39,0.09-0.96,0.09-1.44c0-2.16-0.02-4.33-0.02-6.49
			c0-0.24,0.06-0.47,0.14-1.1c3.05,7.21,3.35,14.08,0.6,21.07c-4-2.29-7.81-4.93-11.98-6.75
			C344.51,472.12,340.04,471.14,335.76,469.82z"/>
		<path class="st15" d="M360.09,414.91c0.91,0.31,1.73,0.5,2.45,0.87c2.13,1.09,2.35,2.01,1.85,4.33
			c-1.02,4.76-1.86,9.55-2.77,14.34c-0.64,3.35-1.21,6.71-1.93,10.04c-0.32,1.48-0.96,2.89-1.52,4.53c-1.3-1.43-2.04-2.86-2.28-4.53
			c-0.53-3.65-1-7.3-2.06-10.86c-0.58-1.94-0.28-3.88,0.79-5.8c2.09-3.77,3.97-7.67,4.99-11.91
			C359.67,415.66,359.84,415.43,360.09,414.91z"/>
		<path class="st16" d="M364.01,434.79c3.71,1.92,6.79,4.39,9.9,7.06c-1.91,3.64-4.01,7.03-7.55,9.37
			c-1.85-0.93-3.71-1.85-5.39-2.69C361.99,443.91,362.97,439.46,364.01,434.79z"/>
		<path class="st15" d="M334.2,472.86c7.9,1.05,15.45,3.19,22.49,8.28c-6.35,0.19-12.29,0.35-17.87,1.98
			C337.22,479.6,335.73,476.26,334.2,472.86z"/>
		<path class="st15" d="M370.35,457.07c-1.23,5.31-3.21,10.64-4.78,12.92c-0.93-6.51-2.34-12.84-5.79-18.71
			C363.28,453.19,366.78,455.11,370.35,457.07z"/>
		<path class="st0" d="M382.03,298.14c-0.33,3.73-0.96,7.26-2.72,10.53c-0.43,0.8-0.77,1.85-1.92,1.49
			c-1.18-0.37-0.86-1.51-0.67-2.34c1.06-4.75,1.07-9.53,0.75-14.35c-0.09-1.39,0.27-1.81,1.27-2.03c1.11-0.24,1.82,0.3,2.08,1.26
			C381.29,294.49,381.63,296.32,382.03,298.14z"/>
		<path class="st15" d="M375.08,439.32c-3.63-2.6-7.06-5.06-10.73-7.69c0.6-3.14,1.22-6.45,1.94-10.22
			C369.33,427.62,372.16,433.38,375.08,439.32z"/>
		<g>
			<path class="st18" d="M238.25,422.14c2.19-4.28,1.39-7.15-1.58-10.08c-2.69-2.66-5.24-5.44-7.39-8.55
				c-1.39-2.02-3.16-2.47-5.47-1.75c-1.78-3.46-3.56-6.9-5.4-10.45c0.64-0.5,1.21-1.01,1.83-1.44c5.57-3.84,10-8.87,14.53-13.83
				c8.01-8.78,16.29-17.29,25.84-24.45c0.5-0.38,1.01-0.75,1.52-1.11c0.09-0.06,0.23-0.07,0.66-0.19c-0.73,1.63-1.42,3.05-2,4.51
				c-0.46,1.16-0.83,2.36-1.16,3.57c-0.2,0.75,0.02,1.54,0.85,1.61c0.44,0.03,1.15-0.49,1.38-0.94c1.32-2.61,2.69-5.22,3.76-7.95
				c1.65-4.21,4.68-6.28,9.1-6.45c1.87-0.07,3.75-0.04,5.62-0.03c0.7,0,1.41,0.18,2.08,0.09c0.41-0.06,1.03-0.44,1.08-0.76
				c0.08-0.45-0.14-1.2-0.48-1.41c-0.69-0.43-1.53-0.7-2.34-0.81c-1.83-0.25-3.68-0.36-5.95-0.57
				c10.38-6.52,20.25-13.11,31.63-17.84c-0.57,1.57-1.08,2.77-1.42,4.02c-0.17,0.63-0.16,1.37,0.01,2c0.1,0.37,0.64,0.83,1.01,0.86
				c0.36,0.03,0.9-0.37,1.11-0.73c0.45-0.78,0.73-1.66,1.11-2.48c0.53-1.14,1.05-2.29,1.67-3.38c1.1-1.95,2.95-2.83,5.09-2.42
				c0.49,0.09,1.1,0.39,1.35,0.79c5.48,8.91,13.16,15.68,21.24,22.07c0.21,0.16,0.37,0.39,0.68,0.74c-0.94,0.56-1.9,0.62-2.82,0.72
				c-3.81,0.42-7.66,0.64-11.44,1.24c-8.41,1.34-15.92,4.66-21.94,10.84c-3.12,3.21-5.94,6.68-8.31,10.5
				c-0.74,1.19-1.61,2.28-2.36,3.46c-3.12,4.87-7.57,8.15-12.65,10.66c-3.88,1.91-7.81,3.72-11.73,5.56
				c-8.41,3.94-13.05,10.72-15.22,19.59c-1.33,5.44-0.62,10.59,1.7,15.48c1.27,2.67,3.1,5.15,5.5,7.04
				c3.71,2.93,7.84,5.13,12.35,6.49c1.85,0.56,3.84,0.68,5.77,0.94c3.6,0.48,7.2,0.9,10.8,1.36c0.41,0.05,0.82,0.18,1.21,0.32
				c3.1,1.06,6.18,2.13,9.28,3.17c0.68,0.23,1.4,0.34,2.11,0.5c0.1-0.13,0.2-0.26,0.3-0.39c-0.22-0.45-0.32-1.05-0.67-1.33
				c-1.48-1.15-2.94-2.39-4.59-3.24c-4.95-2.57-10.25-3.93-15.85-4.23c-4.57-0.24-9.03-1.34-13.2-3.08
				c-5.89-2.45-9.77-6.74-10.58-13.43c-0.51-4.23-0.21-8.36,0.65-12.48c1.32-6.32,5.32-10.49,10.93-13.22
				c3.7-1.8,7.51-3.38,11.28-5.03c3.54-1.55,6.78-3.6,9.84-5.94c0.88-0.67,1.73-1.44,2.41-2.31c2.02-2.59,4.08-5.16,5.87-7.9
				c2.51-3.82,5.38-7.32,8.54-10.59c3.93-4.07,8.94-6.34,14.21-8.16c3.63-1.26,7.43-1.14,11.15-1.62c2.84-0.36,5.67-0.73,8.5-1.18
				c2.03-0.33,3.81-1.19,5.33-2.67c1.34-1.31,2.92-2.38,4.37-3.59c4.04-3.36,7.69-7.11,11.15-11.06c2.26-2.59,4.3-5.32,5.69-8.5
				c0.16-0.37,0.41-0.71,0.71-1.21c2.53,2.47,5.42,2.36,8.72,1.02c0.26,5.77,0.73,11.2,0.71,16.62
				c-0.03,11.08-2.77,21.71-6.05,32.18c-3.31,10.56-8.49,20.18-15.49,28.79c-4.44,5.46-9.58,10.19-15.39,14.12
				c-2.41,1.63-5.07,2.98-7.78,4.04c-6.9,2.7-13.98,4.9-21.35,5.82c-3.24,0.4-6.58,0.48-9.82,0.18c-1.93-0.18-3.76-1.36-5.5-2.04
				c-0.37-1.5-0.64-2.79-1.01-4.05c-0.24-0.79-0.51-1.7-1.6-1.64c-0.77,0.04-1.09,0.93-1.05,2.21c0.05,1.8,0.14,3.62-0.07,5.4
				c-0.15,1.2-0.77,2.36-1.21,3.52c-0.23,0.6-0.54,1.2,0.09,1.71c0.75,0.62,1.35,0.1,1.79-0.44c0.87-1.07,1.65-2.21,2.56-3.44
				c1.06,0.74,2.29,1.49,3.39,2.4c6.8,5.63,14.55,8.98,23.33,9.92c1.87,0.2,3.75,0.41,5.63,0.48c3.74,0.13,7.15-1.06,9.77-3.62
				c3.41-3.34,4.72-6.53,2.86-10.7c-0.6-1.35-1.71-2.47-2.69-3.83c5.48-2.7,10.25-6.83,15.1-11.06c0.06,4.17-1.24,11.67-2.83,15.37
				c-0.49-0.82-0.86-1.51-1.29-2.16c-0.42-0.64-0.83-1.31-1.38-1.83c-0.93-0.9-1.54-0.87-2.38-0.26c-1.02,0.74-0.73,1.51-0.19,2.35
				c2.22,3.48,2.72,7.28,1.98,11.27c-0.73,3.91-2.63,6.92-6.37,8.77c-3.46,1.71-7.01,2.71-10.85,2.78
				c-6.23,0.11-12.42-0.25-18.54-1.53c-0.4-0.08-0.84-0.17-1.24-0.1c-1.05,0.19-1.47,1.3-0.71,2.04c0.53,0.52,1.24,0.92,1.94,1.18
				c6.4,2.37,13.04,2.9,19.8,2.4c1.17-0.09,2.35-0.22,4-0.38c-0.68,0.59-0.98,0.93-1.35,1.15c-4.39,2.54-8.92,4.53-14.17,4.55
				c-1.74,0.01-3.37-0.09-5.09-0.44c-4.6-0.94-9.25-1.22-13.93-0.37c-0.78,0.14-1.63-0.04-2.43-0.16c-0.89-0.14-1.78-0.35-2.66-0.57
				c-9.23-2.3-18.15-5.43-26.77-9.46c-6.51-3.04-12.36-7.06-18.07-11.32C244.93,429.4,241.53,425.88,238.25,422.14z M286.25,365.6
				c0.23-3.79-1.81-6.44-4.59-8.63c-2.34-1.84-5.16-1.95-7.39-0.49c-2.52,1.65-3.61,4.27-3.02,7.21c0.77,3.85,3.3,6.13,6.69,7.7
				c4.18,1.94,8.06-0.35,8.31-4.93C286.27,366.18,286.25,365.9,286.25,365.6z M319.98,333.4c-2.81,0.07-4.55,1.9-4.15,4.04
				c0.69,3.66,2.85,6.33,6.2,7.92c1.53,0.73,3.44,0.12,4.57-1.18c1.16-1.32,1.17-2.78,0.39-4.28c-1.01-1.94-2.26-3.74-4.04-5.02
				C321.92,334.15,320.64,333.72,319.98,333.4z M302.84,408.95c-1.04-0.96-1.82-1.65-2.57-2.37c-0.76-0.72-1.43-1.55-2.26-2.16
				c-0.34-0.25-1.18-0.29-1.47-0.04c-0.28,0.24-0.39,1.16-0.15,1.45c2.14,2.66,4.61,4.88,8.15,5.41c0.37,0.06,0.8-0.28,1.27-0.45
				c-0.41-1.07-0.74-1.93-1.14-2.98c0.92,0.37,1.53,0.73,2.2,0.88c1.26,0.29,2.06-0.6,1.6-1.78c-0.39-1-0.9-1.96-1.35-2.93
				c-0.1,0.03-0.21,0.05-0.31,0.08c0,0.96,0,1.91,0,2.86c-1.6-0.5-2.58-2.33-4.46-2.34C301.46,406.09,302.55,407.23,302.84,408.95z"
				/>
			<path class="st18" d="M317.72,577.88c-1.92,1.75-3.73,2.6-5.62,3.3c-4.86,1.8-9.93,2.74-14.99,3.8
				c-6.81,1.42-13.68,1.84-20.6,1.93c-5.13,0.06-10.14-0.76-15.13-1.87c-1.4-0.31-2.86-0.41-4.6-0.65c-2.32-2.3-2.99-5.55-2.94-9.07
				c0.05-3.43,0.75-6.64,2.86-9.45c0.62-0.82,1.33-1.64,1.7-2.58c0.34-0.87,0.39-1.89,0.38-2.85c-0.03-3.15,0.12-6.27,0.91-9.35
				c0.73-2.85,2.1-5.3,4.17-7.38c0.48-0.49,0.91-1.02,1.36-1.53c-1.28-1.37-1.91-1.5-3.24-0.56c-1.63,1.14-2.87,2.66-3.76,4.43
				c-1.34,2.65-2.1,5.49-2.21,8.44c-0.11,2.7,0.03,5.41,0.05,8.28c-3.61,2.09-5.09,5.74-5.52,9.92c-0.41,4.02,0.03,7.94,2.26,11.7
				c-1.9,0.22-3.57-0.22-5.2-0.58c-1.42-0.31-2.77-0.95-4.17-1.34c-1.03-0.29-2.11-0.4-3.52-0.65c-0.17-1.78-0.57-3.92-0.53-6.06
				c0.2-11.58,2.59-22.73,7.17-33.35c2.44-5.66,5.64-10.92,9.94-15.41c2.61-2.72,5.2-5.47,7.84-8.16c0.41-0.42,1-0.82,1.55-0.9
				c2.11-0.29,4.25-0.45,6.73-0.69c-0.85,1.07-1.5,1.95-2.21,2.78c-2.91,3.37-4.72,7.27-5.36,11.64c-0.32,2.19-0.22,4.45-0.19,6.67
				c0.01,0.82,0.31,1.66,1.62,1.83c0.12-0.52,0.24-1.03,0.34-1.53c0.71-3.34,1.25-6.72,2.18-10c1.29-4.58,4.56-7.93,7.68-11.33
				c0.35-0.38,1.1-0.52,1.67-0.53c9.45-0.12,18.34,2.54,27.03,5.86c4.19,1.6,7.8,4.34,11.14,7.34c4.37,3.93,8.52,8.07,11.87,12.94
				c0.46,0.67,1.04,1.27,1.73,2.1c-2.59,0.3-4.99,0.1-7.38,0.07c-3.98-0.05-7.96-0.1-11.94-0.14c-0.28,0-0.61-0.05-0.83,0.08
				c-1.72,0.96-3.21,0.13-4.73-0.54c-6.64-2.93-13.61-4.51-20.81-5.22c-3.75-0.37-7.48-0.9-11.23-1.27
				c-1.17-0.12-2.38-0.04-3.55,0.09c-0.95,0.11-1.7,0.57-1.46,1.79c8.28,0.13,16.31,1.64,24.25,3.33
				c12.03,2.56,22.85,7.72,31.28,17.06c1.03,1.14,2.08,2.25,3.25,3.51c-0.61,0.34-1.05,0.63-1.53,0.84
				c-5.41,2.37-10.97,3.98-16.96,4.13c-2.5,0.06-4.78-0.23-7.16-0.94c-8.63-2.57-17.42-4.49-26.32-5.89
				c-3.93-0.62-7.85-1.28-11.78-1.9c-0.68-0.11-1.39-0.2-2.08-0.15c-0.99,0.07-1.5,0.64-1.34,1.7c4.09,0.8,8.17,1.62,12.24,2.41
				c11.86,2.29,23.64,4.88,34.95,9.24C310.52,574.55,313.91,576.2,317.72,577.88z"/>
			<path class="st18" d="M417.15,304.18c3.79,1.84,6.16,4.38,7.78,7.69c0.66,1.34,1.26,2.88,3.29,2.88
				c0.64-6.55-3.47-9.99-8.58-13.05c2.68-3.04,5.32-6.03,8.12-9.19c0.85,1.08,1.7,1.92,2.27,2.94c1.97,3.53,3.85,7.1,5.74,10.68
				c0.49,0.92,0.84,1.92,1.27,2.87c1.25,2.75,1.25,2.75,4.17,4.6c0.49-0.46,1.09-0.9,1.54-1.47c2.45-3.11,3.92-6.74,5.2-10.44
				c0.21-0.59,0.37-1.19,0.66-2.12c0.31,0.73,0.55,1.19,0.69,1.67c0.8,2.82,1.53,5.65,2.36,8.46c0.5,1.71,1.5,1.99,2.96,0.95
				c0.11-0.08,0.2-0.2,0.31-0.27c0.41-0.26,0.83-0.51,1.49-0.92c0.8,1.46,1.65,2.87,2.38,4.34c0.59,1.18,0.98,2.47,1.58,3.65
				c1.19,2.36,0.6,4.48-0.8,6.48c-0.67,0.96-1.48,1.84-2.32,2.68c-0.31,0.31-0.85,0.46-1.31,0.54c-3.85,0.66-7.68,1.42-11.55,1.88
				c-6.02,0.72-12.07,1.38-18.12,1.76c-5.43,0.34-10.88,0.47-16.31-0.31c-2.85-0.41-5.7-0.99-8.19-2.41
				c-4.4-2.5-8.02-5.81-9.59-10.87c-0.08-0.26-0.17-0.54-0.17-0.82c-0.01-2.84-0.01-5.69-0.01-8.58c0.12,0.08,0.41,0.27,0.68,0.47
				c1.4,1.03,2.75,2.15,4.21,3.09c5.99,3.89,11.73,1.58,15.5-1.91c1.33-1.23,2.5-2.63,3.73-3.97
				C416.52,305.08,416.82,304.61,417.15,304.18z"/>
			<path class="st18" d="M223.67,430.03c1.8,3.58,4.74,6.18,7.68,8.75c7.13,6.25,14.98,11.42,23.71,15.19
				c0.5,0.22,0.99,0.47,1.42,0.98c-1.94-0.27-3.9-0.49-5.83-0.8c-12.59-2.06-24.82-5.3-36.37-10.84c-0.75-0.36-1.51-0.73-2.25-1.12
				c-8.01-4.14-8.75-4.58-14.39-11.48c-1.74-2.13-3.13-4.65-4.18-7.2c-2.1-5.11-3.65-10.4-3.56-16.03c0.01-0.73-0.3-1.47-0.5-2.34
				c4.37-1.68,8.85-3.39,13.44-5.15c1.85,3.19,2.59,6.92,4.88,10.06c-0.15,0.28-0.32,0.75-0.61,1.1c-1.24,1.46-1.33,1.64-0.46,3.24
				c1.81,3.31,3.71,6.56,5.52,9.87c1.47,2.67,3.84,4.28,6.55,5.28C220.17,430.05,221.88,429.87,223.67,430.03z"/>
			<path class="st18" d="M395.25,285.47c0-1.48,0-2.97,0-4.56c1.52,0.2,2.92,0.39,4.08,0.54c-1.2,1.37-2.44,2.79-3.68,4.21
				C395.52,285.6,395.38,285.53,395.25,285.47z"/>
			<path class="st18" d="M416.03,274.33c0.71-1.31,1.27-2.34,1.99-3.69c0.2,0.65,0.36,1.05,0.45,1.47c0.1,0.47,0.13,0.95,0.22,1.6
				C417.86,273.9,417.08,274.09,416.03,274.33z"/>
		</g>
		<g>
			<g>
				<path class="st19" d="M331.38,545.11c-0.59-1.38-8.66-22.43-40.53-28.33c-1.18-0.2-14.17-1.97-14.17-1.97
					s-12.99,13.18-11.02,25.18c0,0-9.84,4.72-8.07,22.04c0,0-10.82,10.03-2.36,23.61c0,0,24.4,8.66,51.94-1.18
					c0,0,11.22-2.36,12.59-6.1c0,0-1.77-2.75-12.99-7.28c0,0,14.76-1.18,21.84-6.69c0,0-6.89-12.4-19.68-17.51
					c0,0,19.09,0,20.66,0.2C331.18,547.27,331.38,545.11,331.38,545.11z"/>
				<g>
					<path class="st19" d="M425.11,220.4c0.36,4.09-0.23,7.67-0.77,11.26c-1.92,12.5-4.8,24.78-8.23,36.94
						c-0.77,2.73-2.43,4.83-4.41,6.74c-0.28,0.28-0.73,0.4-1.11,0.56c-0.71,0.3-1.47,0.48-2.13,0.86
						c-4.11,2.38-8.47,2.56-13.25,1.53c-0.11-2.25-0.04-4.6,0.15-6.93c0.73-9.42,3.32-18.39,7.06-27.01
						c3.99-9.19,10.03-16.74,18.74-21.93C422.33,221.72,423.6,221.17,425.11,220.4z"/>
					<path class="st19" d="M436.45,276.51c-1.52,2.43-2.57,4.61-4.06,6.4c-4.95,5.96-10.03,11.82-15.13,17.66
						c-2.02,2.31-4.18,4.51-6.33,6.7c-3.81,3.88-8.24,4.59-12.93,1.89c-1.98-1.14-3.75-2.63-5.59-4.01
						c-0.79-0.59-0.98-1.4-0.81-2.42c1.62-9.72,6.41-17.09,15.49-21.44c5.3-2.54,10.92-3.73,16.68-4.57
						C427.8,276.15,431.82,276.43,436.45,276.51z"/>
					<path class="st19" d="M440.72,310.29c-0.78-1.85-1.57-3.69-2.33-5.55c-1.57-3.83-3.72-7.35-6.09-10.72
						c-0.83-1.18-1.89-2.2-2.92-3.37c1.11-1.39,2.38-2.8,3.44-4.34c2.01-2.93,3.9-5.94,5.82-8.94c0.29-0.46,0.53-1,0.63-1.53
						c0.15-0.79-0.21-1.28-1.06-1.49c-5.3-1.28-10.67-1.64-16.09-1.19c-0.06,0-0.12-0.05-0.29-0.13c-0.82-2.2-1-4.6-0.6-6.9
						c0.37-2.1,1.95-3.74,3.73-4.86c5.69-3.59,14.24-2.56,17.78,4.92c2.42,5.11,3.71,10.47,4.36,16.06
						c0.94,8.11-0.37,15.84-3.36,23.35c-0.66,1.66-1.64,3.2-2.47,4.8C441.07,310.36,440.89,310.33,440.72,310.29z"/>
					<path class="st19" d="M453.88,308.8c-0.47-1.48-0.81-2.75-1.26-3.97c-0.95-2.54-1.98-5.05-2.92-7.59
						c-0.21-0.56-0.38-1.22-0.29-1.78c1.73-10.31,0.6-20.27-3.58-29.86c-0.11-0.26-0.23-0.51-0.31-0.77
						c-0.04-0.13-0.01-0.27-0.01-0.6c0.7-0.13,1.45-0.47,2.16-0.38c5.03,0.61,9.26,2.53,11.59,7.41c1.72,3.62,2.98,7.33,3.09,11.41
						c0.14,5.33-0.31,10.58-1.75,15.73C459.45,302.47,456.98,305.68,453.88,308.8z"/>
				</g>
			</g>
			<path class="st19" d="M366.8,317.46c-0.79,0.39-14.95,24-25.97,28.14c0,0-11.81,2.36-14.76,2.75
				c-2.95,0.39-19.68,0.39-32.46,22.82c0,0-9.25,14.17-22.43,16.53c0,0-17.9,6.49-17.9,25.18c0,0-1.57,16.13,18.1,21.45
				c0,0,18.29,0.85,22.63,4.33c0,0,12.99,6.69,14.76,6.69s19.09,5.31,26.76,1.18c0,0,12.99-3.74,11.81-16.33
				c0,0-0.79-11.41-6.3-14.17c0,0,25.18-20.86,28.92-38.17c0.79-1.38,7.08-14.76,7.67-54.7C377.62,323.16,372.7,314.51,366.8,317.46
				z"/>
		</g>
		<path class="st20" d="M304.78,428.02c9.62-0.21,18.63-3.05,27.73-6.23c1.86,1.82,3.43,3.79,3.28,6.64
			c-0.05,0.96,0.6,2.14-0.87,2.77c-1.98-2.59-4.49-4.27-8.29-4.33c1.01,1.5,2.4,1.96,3.51,2.78c1.17,0.86,2.29,1.78,3.57,2.78
			c-1.67,1.53-3.51,2.13-5.42,2.4c-1.29,0.18-2.63,0.1-3.94,0.05c-4.45-0.18-8.68-1.22-12.69-3.19c-2.29-1.12-4.62-2.15-6.94-3.22
			C304.74,428.31,304.76,428.17,304.78,428.02z"/>
		<g>
			<g>
				<path class="st21" d="M226.33,403.67c0.79,1.12,1.46,2.01,2.08,2.94c1.57,2.33,3.37,4.44,5.56,6.23
					c0.91,0.75,1.76,1.61,2.49,2.53c1.88,2.37,1.47,5.08-1.13,6.58c-2.95,1.71-5.95,3.38-9.07,4.74c-1.81,0.78-3.9,0.93-5.87,1.31
					c-0.3,0.06-0.7-0.09-0.98-0.26c-1.7-0.99-3.37-2.02-4.4-3.78c-2-3.44-3.99-6.88-5.98-10.33c-0.5-0.86-0.21-1.47,0.63-1.85
					c0.7-0.32,1.42-0.59,2.13-0.87c4.49-1.77,8.86-3.77,12.96-6.34C225.21,404.28,225.7,404.02,226.33,403.67z M220.05,424.05
					c0.37-0.11,0.94-0.2,1.43-0.43c2.13-1.02,4.26-2.04,6.35-3.15c0.72-0.38,1.35-0.99,1.94-1.57c0.78-0.77,1.08-1.66,0.78-2.84
					c-0.65-2.56-2.5-4.3-4.06-6.22c-0.63-0.78-1.7-0.74-2.69-0.16c-1.37,0.81-2.81,1.51-4.22,2.24c-1.54,0.8-3.12,1.55-4.64,2.39
					c-1.4,0.78-1.35,1.03-1.23,2.7c0.12,1.7,1.11,2.96,1.75,4.41C216.34,423.39,218.12,423.64,220.05,424.05z"/>
				<path class="st21" d="M274.51,286.15c-3.45,0.3-5.72,2.13-7.88,4.52c-0.25-0.45-0.53-0.88-0.74-1.34
					c-2.58-5.77-3.54-11.77-1.94-17.95c1.12-4.33,2.75-8.47,6.3-11.51c0.21-0.18,0.42-0.37,0.64-0.53c0.1-0.07,0.25-0.08,0.61-0.2
					C267.61,268.73,269.17,277.64,274.51,286.15z"/>
				<path class="st21" d="M267.51,298.5c-2.01,1.44-3.79,2.72-5.61,4.02c-5.52-5.56-7.94-18.57-2.2-26.72
					C259.52,284.51,262.19,291.99,267.51,298.5z"/>
				<path class="st21" d="M346.62,441.74c1.46,3.05,2.1,6.11,2.81,9.15c0.19,0.81,0.2,1.68,0.47,2.46c0.91,2.63-0.17,4.37-2.36,5.68
					c-0.03-0.12-0.12-0.32-0.07-0.36c1.4-1.25,1.62-2.8,1.24-4.55c-0.51-2.31-0.86-4.66-1.46-6.95c-0.58-2.2-1.52-2.46-3.22-1
					c-3.08,2.64-6.13,5.29-9.76,7.17c-0.43,0.22-0.87,0.56-1.31,0.57c-1.27,0.01-1.56,0.74-1.48,1.77c0.07,0.9,0.14,1.81,0.36,2.68
					c0.5,1.96,1.09,3.89,1.67,5.83c0.44,1.47,0.56,1.58,2.06,1.3c1.21-0.23,2.39-0.59,3.63-0.73c-2.57,1.54-5.17,2.93-8.31,2.12
					c-0.69-3.93-1.37-7.81-2.06-11.77c0.6-0.32,1.13-0.65,1.69-0.89c3.7-1.6,7.04-3.85,9.73-6.77
					C342.13,445.39,344.45,443.89,346.62,441.74z"/>
				<path class="st21" d="M375.62,507.16c-3.72-8.73-8.58-16.48-14.09-23.97c0.41-0.36,0.94-0.84,1.64-1.46
					c2.6,3.95,5.2,7.86,7.76,11.81c2.57,3.96,5.46,7.73,7.06,12.37C377.33,506.26,376.62,506.64,375.62,507.16z"/>
			</g>
			<path class="st21" d="M345.84,460.78c-0.35,0.29-0.71,0.57-1.06,0.86c-0.07-0.07-0.14-0.15-0.22-0.22
				c0.2-0.18,0.39-0.37,0.6-0.53c0.18-0.13,0.39-0.23,0.59-0.34C345.78,460.62,345.81,460.7,345.84,460.78z"/>
		</g>
		<path d="M286.25,365.6c0,0.31,0.01,0.58,0,0.86c-0.25,4.58-4.13,6.87-8.31,4.93c-3.39-1.57-5.92-3.86-6.69-7.7
			c-0.58-2.94,0.51-5.56,3.02-7.21c2.23-1.46,5.05-1.34,7.39,0.49C284.44,359.16,286.48,361.81,286.25,365.6z M278.09,363.01
			c-0.18-0.57-0.35-1.54-0.77-2.39c-0.46-0.93-1.35-1.4-2.42-1.24c-1.1,0.16-1.61,0.91-1.87,1.95c-0.33,1.34,0.08,2.45,0.86,3.49
			c0.6,0.81,1.24,1.54,2.4,1.15C277.28,365.63,278.07,364.49,278.09,363.01z M282.37,365.02c0,0.22-0.14,0.9,0.05,1.45
			c0.14,0.41,0.69,0.84,1.13,0.92c0.29,0.06,0.85-0.4,1.02-0.75c0.52-1.07-0.07-3.46-0.99-4.22c-0.22-0.18-0.66-0.32-0.9-0.22
			c-0.25,0.11-0.5,0.51-0.52,0.79C282.14,363.53,282.27,364.08,282.37,365.02z"/>
		<path d="M319.98,333.4c0.66,0.32,1.93,0.75,2.97,1.49c1.78,1.28,3.03,3.07,4.04,5.02c0.78,1.5,0.77,2.95-0.39,4.28
			c-1.14,1.29-3.05,1.9-4.57,1.18c-3.35-1.59-5.51-4.27-6.2-7.92C315.43,335.3,317.18,333.47,319.98,333.4z M321.39,338.27
			c-0.01-1.24-1.07-2.38-2.16-2.33c-0.83,0.04-1.42,0.63-1.45,1.45c-0.04,1.24,1.1,2.74,2.07,2.73
			C320.74,340.11,321.39,339.33,321.39,338.27z M324.24,339.97c-0.55,1.09-0.54,1.97,0.26,2.72c0.2,0.19,0.66,0.32,0.88,0.22
			c0.23-0.11,0.46-0.53,0.45-0.81C325.79,341.15,325.36,340.4,324.24,339.97z"/>
		<path d="M302.84,408.95c-0.29-1.72-1.39-2.86-0.5-4.37c1.88,0.01,2.86,1.84,4.46,2.34c0-0.95,0-1.91,0-2.86
			c0.1-0.03,0.21-0.05,0.31-0.08c0.45,0.98,0.96,1.93,1.35,2.93c0.45,1.18-0.34,2.07-1.6,1.78c-0.66-0.15-1.28-0.5-2.2-0.88
			c0.4,1.05,0.73,1.91,1.14,2.98c-0.46,0.17-0.89,0.51-1.27,0.45c-3.55-0.53-6.02-2.76-8.15-5.41c-0.23-0.29-0.13-1.21,0.15-1.45
			c0.29-0.25,1.13-0.21,1.47,0.04c0.83,0.62,1.51,1.44,2.26,2.16C301.02,407.3,301.8,407.99,302.84,408.95z"/>
		<path d="M409.4,404.7c-1.41,0.09-2.23-0.64-3.02-1.43c-3.58-3.63-7.06-7.35-9.91-11.61c-0.33-0.49-0.72-0.95-1.32-1.31
			c0.18,0.5,0.31,1.02,0.55,1.5c1.98,4,3.93,8.01,5.99,11.96c0.49,0.94,1.4,1.66,2.11,2.48c-1.84,0.3-3.52-0.32-4.58-1.8
			c-0.65-0.91-1.22-1.87-1.74-2.86c-3.07-5.74-5.37-11.79-7.12-18.05c-0.45-1.61,0-2.34,1.54-2.42c0.48-0.03,1.02,0.27,1.46,0.54
			c0.27,0.16,0.42,0.54,0.61,0.83c4.25,6.57,8.94,12.82,13.95,18.82C408.67,402.25,409.45,403.17,409.4,404.7z"/>
		<path d="M220.05,424.05c-1.93-0.41-3.71-0.66-4.59-2.63c-0.65-1.45-1.63-2.71-1.75-4.41c-0.12-1.67-0.17-1.92,1.23-2.7
			c1.52-0.84,3.09-1.59,4.64-2.39c1.41-0.73,2.85-1.43,4.22-2.24c0.99-0.58,2.06-0.62,2.69,0.16c1.56,1.92,3.41,3.66,4.06,6.22
			c0.3,1.18,0.01,2.06-0.78,2.84c-0.59,0.58-1.22,1.19-1.94,1.57c-2.08,1.11-4.22,2.13-6.35,3.15
			C220.99,423.85,220.43,423.94,220.05,424.05z M228.43,416.56c-0.49-0.44-0.83-0.75-1.04-0.93c-3.01,1.83-5.9,3.59-9.33,5.67
			c0.48,0.15,0.79,0.37,1.01,0.3C222.41,420.55,225.5,419.03,228.43,416.56z"/>
		<path class="st0" d="M278.09,363.01c-0.03,1.47-0.82,2.62-1.8,2.95c-1.16,0.39-1.8-0.33-2.4-1.15c-0.77-1.05-1.19-2.15-0.86-3.49
			c0.26-1.04,0.78-1.79,1.87-1.95c1.07-0.16,1.96,0.31,2.42,1.24C277.74,361.47,277.92,362.44,278.09,363.01z"/>
		<path class="st0" d="M282.37,365.02c-0.11-0.94-0.24-1.49-0.2-2.03c0.02-0.29,0.27-0.69,0.52-0.79c0.23-0.1,0.67,0.04,0.9,0.22
			c0.92,0.76,1.51,3.15,0.99,4.22c-0.17,0.36-0.73,0.81-1.02,0.75c-0.43-0.08-0.98-0.51-1.13-0.92
			C282.23,365.91,282.37,365.24,282.37,365.02z"/>
		<path class="st0" d="M321.39,338.27c0,1.06-0.64,1.84-1.54,1.85c-0.98,0.01-2.12-1.49-2.07-2.73c0.03-0.82,0.62-1.41,1.45-1.45
			C320.32,335.89,321.38,337.03,321.39,338.27z"/>
		<path class="st0" d="M324.24,339.97c1.13,0.43,1.55,1.18,1.59,2.13c0.01,0.28-0.21,0.7-0.45,0.81c-0.22,0.1-0.68-0.03-0.88-0.22
			C323.7,341.95,323.69,341.06,324.24,339.97z"/>
		<g>
			<path class="st22" d="M234.03,425.93c1.18-0.78,2.04-1.35,3.07-2.03c0.19,0.62,0.29,1.07,0.46,1.49c0.29,0.7,0.51,1.48,0.96,2.05
				c1.83,2.3,3.7,4.56,6.19,6.2c6.93,4.57,13.85,9.16,20.82,13.68c2.53,1.64,5.31,2.74,8.24,3.52c5.22,1.4,10.35,3.17,15.75,3.98
				c-1.37,0.72-2.81,0.61-4.2,0.31c-5.32-1.13-10.58-2.47-15.69-4.4c-3.22-1.22-6.17-2.92-9.05-4.76
				c-6.89-4.4-13.56-9.1-19.97-14.18c-1.13-0.9-2.52-1.48-3.6-2.42C235.94,428.42,235.11,427.2,234.03,425.93z"/>
			<path class="st22" d="M336.01,455.06c3.15-2.34,5.92-4.41,8.73-6.49c0.12,0.3,0.29,0.73,0.52,1.28
				C342.27,451.58,339.93,454.32,336.01,455.06z"/>
			<path class="st22" d="M326.24,456.03c0.18,0.61,0.32,1.11,0.57,1.96c-1.67-0.18-3.11-0.33-4.54-0.49c0-0.1-0.01-0.21-0.01-0.31
				C323.54,456.81,324.83,456.44,326.24,456.03z"/>
			<path class="st22" d="M228.43,416.56c-2.93,2.46-6.02,3.98-9.36,5.04c-0.22,0.07-0.53-0.15-1.01-0.3
				c3.43-2.09,6.32-3.84,9.33-5.67C227.6,415.82,227.94,416.13,228.43,416.56z"/>
		</g>
		<path d="M462.22,324.95c-0.01,0.01,0.12-0.22,0.29-0.43c1.49-1.91,1.88-4,1.04-6.3c-0.55-1.5-1.02-3.04-1.65-4.51
			c-1.01-2.36-2.12-4.67-3.2-7.05c3.16-3.87,4.69-8.33,5.45-13.07c0.41-2.54,0.59-5.13,0.77-7.7c0.4-5.54-0.63-10.81-3.01-15.86
			c-1.59-3.37-3.93-6.03-7.23-7.58c-3.5-1.65-7.17-3.36-11.14-0.96c-6.28-6.9-13.55-7.05-21.45-3.16c0-0.24-0.04-0.45,0.01-0.64
			c1.59-7.58,3.28-15.13,4.76-22.73c0.88-4.52,1.67-9.07,1.37-13.72c-0.06-0.97-0.2-1.94-0.45-2.87c-0.24-0.92-0.87-1.43-1.9-1.04
			c-1.62,0.61-3.35,1.03-4.83,1.88c-9.79,5.59-16.89,13.66-21.33,23.99c-3.21,7.46-5.49,15.24-6.55,23.31
			c-0.9,6.86-1.24,13.76,0.2,20.62c0.12,0.55,0.06,1.34-0.26,1.76c-1.84,2.4-2.41,5.32-3.41,8.06c-1.65,4.54-1.7,9.14-0.54,13.8
			c0.28,1.14,0.45,2.31,0.66,3.41c-0.62,0.58-1.13,1.06-1.63,1.53c-1.3,1.21-1.75,2.57-1.08,4.33c0.57,1.49,0.82,3.11,1.39,4.6
			c0.44,1.17,0.37,2.28,0.28,3.48c-0.27,3.54-0.56,7.1-0.55,10.65c0.01,3.98,0.41,7.95,0.5,11.93c0.07,2.93-0.24,5.87-0.09,8.79
			c0.1,1.79,0.06,3.42-0.91,4.98c-0.73,1.18-0.46,2.43,0.04,3.62c0.65,1.52,1.35,3.02,2.11,4.71c-0.48-0.08-0.8-0.14-1.13-0.19
			c-2.09-0.34-2.7-0.05-3.71,1.83c-0.43,0.8-0.9,1.6-1.18,2.45c-0.48,1.46-1.49,2.19-2.89,2.74c-3.5,1.38-6.94,2.92-10.42,4.38
			c-0.39,0.17-0.82,0.25-1.5,0.46c4.1-8.66,6.63-17.49,8.68-26.5c2.18-9.61,3.05-19.27,2.06-29.11c-0.3-3.02-0.97-6.1-0.15-9.16
			c0.36-1.33,0.82-2.63,1.22-3.95c2.23-7.31,2.78-14.8,2.11-22.37c-0.2-2.27-0.81-4.52-1.32-6.75c-0.44-1.9-1.56-3.43-3.09-4.61
			c-1.1-0.85-2.21-1.75-3.45-2.35c-2.89-1.41-5.86-1.4-8.53,0.47c-1.35,0.95-2.47,2.25-3.59,3.49c-2.68,2.94-3.31,6.58-3.14,10.35
			c0.32,7.55,1.03,15.04,4.01,22.13c0.19,0.46,0.31,1.16,0.1,1.56c-1.7,3.28-3.19,6.69-5.59,9.56c-4.08,4.9-8.54,9.42-13.48,13.45
			c-1.33,1.09-2.81,2-4.26,3.01c-5.71-5.44-11.82-10.12-16.28-16.16c3.2-2.6,6.34-5.03,9.33-7.64c1.61-1.41,3.01-3.09,4.42-4.71
			c0.76-0.87,0.58-2-0.34-2.54c-1.67-0.98-3.36-1.94-5.09-2.81c-3.61-1.83-7.26-3.57-10.87-5.41c-0.73-0.37-1.45-0.88-1.98-1.49
			c-2.17-2.46-4.27-4.97-6.19-7.23c0.78-2.96,1.81-5.68,2.12-8.48c0.26-2.36,0.82-4.65,1.11-6.99c0.08-0.62,0.24-1.24,0.25-1.86
			c0.26-12.55-5.08-22-16.06-27.99c-6.47-3.53-13.32-3.92-20.14-0.68c-2.06,0.98-3.85,2.51-6.23,2.82
			c-0.39,0.05-0.78,0.31-1.13,0.53c-4.48,2.85-8.46,6.19-10.8,11.12c-0.21,0.43-0.44,0.85-0.71,1.37c-2.3,0.23-4.59,0.49-6.87,0.69
			c-5.57,0.48-11.09,1.34-16.48,2.85c-5.93,1.66-11.6,3.97-16.98,7.02c-5.89,3.35-11.63,6.92-17.26,10.7
			c-7.93,5.32-14.15,12.18-19.31,20.11c-1.56,2.4-3.01,4.87-4.64,7.22c-6.18,8.92-9.19,18.73-8.41,29.62
			c0.13,1.81,0.25,3.62,0.46,5.42c0.62,5.34,1.13,10.69,1.98,15.99c1.02,6.4,2.35,12.76,3.53,19.14c0.11,0.6,0.23,1.27,0.09,1.84
			c-0.5,2.02-1.13,4.02-1.69,6.03c-1.1,3.97-2.21,7.93-3.24,11.91c-0.25,0.99-0.3,2.07-0.24,3.1c0.06,1.09,0.65,1.51,1.69,1.31
			c3.42-0.65,6.82-1.34,10.24-2.01c0.45-0.09,0.9-0.12,1.31-0.18c0.51,9.88,2.82,19,8.72,26.77c-0.39,1.01-0.77,1.89-1.07,2.8
			c-1.28,3.92-2.79,7.72-5.07,11.21c-1.13,1.73-1.83,3.73-2.74,5.61c-0.26,0.55-0.47,1.16-0.85,1.61
			c-10.52,12.47-19.96,25.71-27.93,39.95c-8.89,15.88-14.43,32.9-17.07,50.9c-1,6.81-0.98,13.64-0.82,20.48
			c0.03,1.39,0.2,2.79,0.42,4.16c0.15,0.98,0.54,1.84,1.61,2.26c1.94,0.78,3.82,1.7,5.77,2.47c8.78,3.46,17.85,5.96,27.07,7.97
			c7.44,1.62,14.93,2.96,22.51,3.64c6.05,0.54,12.13,0.69,18.2,0.97c5.93,0.28,11.86,0.72,17.79,0.67c2.5-0.02,4.76,0.22,7.03,1.21
			c1.6,0.69,2.1,0.45,3.23-0.88c0.4-0.47,0.81-0.93,1.24-1.41c4.05,1.4,8.23,1.67,12.39,2.07c2.15,0.21,4.41,0.7,6.45,0.27
			c2.24-0.47,4.24,0.03,6.35,0.27c1.45,0.16,2.91,0.32,4.37,0.44c1.46,0.12,2.91,0.2,4.37,0.3h6.71c2.14-0.28,4.28-0.52,6.41-0.84
			c6.7-0.99,13.39-2.03,19.82-4.24c2.36-0.81,4.6-1.99,6.87-3.03c0.5-0.23,0.95-0.58,1.39-0.93c2.28-1.82,2.15-4.29-0.37-5.76
			c-1.75-1.02-3.58-1.88-5.38-2.81c-0.36-0.19-0.74-0.36-1.57-0.76c1.78-0.34,3.09-0.61,4.41-0.84c4.5-0.8,8.73-2.4,12.83-4.37
			c0.44-0.21,0.87-0.46,1.23-0.77c0.59-0.52,0.78-1.24,0.35-1.89c-0.73-1.08-1.55-2.11-2.42-3.09c-4.35-4.87-9.22-9.14-15.17-12.48
			c2.72,0,5.17-0.05,7.62,0.01c3.21,0.08,6.41,0.3,9.62,0.34c2.73,0.04,3.85-1.73,2.73-4.29c-0.56-1.27-1.25-2.5-2.06-3.62
			c-1.27-1.75-2.69-3.39-4.05-5.08c-0.25-0.32-0.5-0.64-0.97-1.24c1.54-0.43,2.83-0.9,4.16-1.14c1.01-0.18,1.72,0.49,2.14,1.37
			c0.1,0.21,0.19,0.43,0.28,0.65c0.21-0.18,0.44-0.32,0.71-0.41c0.32-0.17,0.67-0.24,1.03-0.24c0.44-0.07,0.87-0.18,1.29-0.33
			c0.73-0.35,1.41-0.8,2.07-1.27c0.17-0.12,0.35-0.2,0.54-0.26c0.73-0.52,1.6-0.91,2.6-1.23c3.97-1.28,7.79-1.14,11.67,0.25
			c0.65,0.23,1.31,0.46,1.97,0.67c0.13-0.01,0.27-0.02,0.4-0.03c0.17-0.03,0.33-0.05,0.5-0.08c0.34-0.06,0.67-0.13,1-0.21
			c0.63-0.15,1.24-0.33,1.85-0.56c0.01,0,0.13-0.05,0.24-0.1c0.06-0.03,0.12-0.05,0.14-0.07c0.15-0.07,0.39-0.28,0.58-0.36
			c0.04-0.04,0.08-0.08,0.12-0.12c0.04-0.04,0.09-0.09,0.13-0.14c0.34-0.51,0.69-1.01,1.04-1.5c0.54-1.37,1.28-2.58,2.28-3.57
			c0.69-0.68,1.76-1.16,2.73-1.32c0.75-0.13,1.41-0.1,1.9,0.13c0.12,0.02,0.25,0.03,0.36,0.07c0.68,0.27,1.38,0.45,2.09,0.58
			c0.38,0.03,0.76,0.04,1.14,0.01c0.1-0.02,0.2-0.05,0.29-0.08c0.66-1.82,2.81-3.39,4.65-3.28c0.45,0.03,0.93,0.17,1.38,0.38
			c0.09,0.02,0.18,0.04,0.26,0.06c0.21,0.01,0.41,0.01,0.62,0c0.27-0.06,0.54-0.13,0.8-0.23c0.74-0.36,1.42-0.82,2.09-1.29
			c0.31-0.51,0.64-1.01,1.09-1.36c3.24-2.57,6.64-4.88,10.88-5.52c0.82-0.12,1.61-0.18,2.39-0.18c1.86-0.59,3.73-1.15,5.38-2.07
			c2.16-1.21,3.84-3.1,5.3-5.06c3.11-4.19,5.21-9.06,4.32-14.22c-4.17-11.26-9.62-21.93-15.27-32.5c-0.33-0.61-0.66-1.22-0.96-1.78
			c0.12-0.2,0.17-0.37,0.26-0.41c11.83-5.38,22.61-12.47,32.84-20.39c7.23-5.6,14.27-11.45,21.36-17.22
			c1.56-1.27,3.02-2.68,4.47-4.1c0.37-0.36,0.58-0.94,0.71-1.46c2.04-7.84,3.72-15.75,4.46-23.83c0.39-4.31,1.06-8.61,1.21-12.92
			c0.3-8.81,1.72-17.48,2.84-26.19c0.42-3.25,0.92-6.49,1.39-9.74c0.06-0.41,0.09-0.87,0.3-1.19c1.57-2.32,2.57-4.9,3.45-7.54v-2.1
			C465.89,328.92,464.1,326.98,462.22,324.95z M458.8,313.79c0.59,1.18,0.98,2.47,1.58,3.65c1.19,2.36,0.6,4.48-0.8,6.48
			c-0.67,0.96-1.48,1.84-2.32,2.68c-0.31,0.31-0.85,0.46-1.31,0.54c-3.85,0.66-7.68,1.42-11.55,1.88
			c-6.02,0.72-12.07,1.38-18.12,1.76c-5.43,0.34-10.88,0.47-16.31-0.31c-2.85-0.41-5.7-0.99-8.19-2.41
			c-4.4-2.5-8.02-5.81-9.59-10.87c-0.08-0.26-0.17-0.54-0.17-0.82c-0.01-2.84-0.01-5.69-0.01-8.58c0.12,0.08,0.41,0.27,0.68,0.47
			c1.4,1.03,2.75,2.15,4.21,3.09c6,3.89,11.73,1.58,15.5-1.91c1.33-1.23,2.5-2.63,3.73-3.97c0.37-0.41,0.67-0.87,0.99-1.3
			c3.79,1.84,6.16,4.38,7.78,7.69c0.66,1.34,1.26,2.88,3.29,2.88c0.64-6.55-3.47-9.99-8.58-13.05c2.68-3.04,5.32-6.03,8.12-9.19
			c0.85,1.08,1.7,1.92,2.27,2.94c1.97,3.53,3.85,7.1,5.74,10.68c0.49,0.92,0.84,1.92,1.27,2.87c1.25,2.75,1.25,2.75,4.17,4.6
			c0.49-0.46,1.09-0.9,1.54-1.47c2.45-3.11,3.92-6.74,5.2-10.44c0.21-0.59,0.37-1.19,0.66-2.12c0.31,0.73,0.55,1.19,0.69,1.67
			c0.8,2.82,1.53,5.65,2.36,8.46c0.5,1.71,1.5,1.99,2.96,0.95c0.11-0.08,0.2-0.2,0.31-0.27c0.41-0.26,0.83-0.51,1.49-0.92
			C457.22,310.9,458.07,312.32,458.8,313.79z M445.51,264.22c0.7-0.13,1.45-0.47,2.16-0.38c5.03,0.61,9.26,2.53,11.59,7.41
			c1.72,3.62,2.98,7.33,3.09,11.41c0.14,5.33-0.31,10.58-1.75,15.73c-1.14,4.08-3.61,7.29-6.71,10.42
			c-0.47-1.48-0.81-2.75-1.26-3.97c-0.95-2.54-1.98-5.05-2.92-7.59c-0.21-0.56-0.38-1.22-0.29-1.78c1.73-10.31,0.6-20.27-3.58-29.86
			c-0.11-0.26-0.23-0.51-0.31-0.77C445.48,264.7,445.51,264.55,445.51,264.22z M424.94,261.26c5.69-3.59,14.24-2.56,17.78,4.92
			c2.42,5.11,3.71,10.47,4.36,16.06c0.94,8.11-0.37,15.84-3.36,23.35c-0.66,1.66-1.64,3.2-2.47,4.8c-0.18-0.03-0.36-0.07-0.53-0.1
			c-0.78-1.85-1.57-3.69-2.33-5.55c-1.57-3.83-3.72-7.35-6.09-10.72c-0.83-1.18-1.89-2.2-2.92-3.37c1.11-1.39,2.38-2.8,3.44-4.34
			c2.01-2.93,3.9-5.94,5.82-8.94c0.29-0.46,0.53-1,0.63-1.53c0.15-0.79-0.21-1.28-1.06-1.49c-5.3-1.28-10.67-1.64-16.09-1.19
			c-0.06,0-0.12-0.05-0.29-0.13c-0.82-2.2-1-4.6-0.6-6.9C421.58,264.02,423.16,262.38,424.94,261.26z M395.35,271.36
			c0.73-9.42,3.32-18.39,7.06-27.01c3.99-9.19,10.03-16.74,18.74-21.93c1.18-0.7,2.45-1.25,3.96-2.02
			c0.36,4.09-0.23,7.67-0.77,11.26c-1.92,12.5-4.8,24.78-8.23,36.94c-0.77,2.73-2.43,4.83-4.41,6.74c-0.28,0.28-0.73,0.4-1.11,0.56
			c-0.71,0.3-1.47,0.48-2.13,0.86c-4.11,2.38-8.47,2.56-13.25,1.53C395.1,276.04,395.17,273.7,395.35,271.36z M418.69,273.71
			c-0.83,0.19-1.61,0.38-2.66,0.62c0.71-1.31,1.27-2.34,1.99-3.69c0.2,0.65,0.36,1.05,0.45,1.47
			C418.57,272.58,418.6,273.06,418.69,273.71z M399.33,281.45c-1.2,1.37-2.44,2.79-3.68,4.21c-0.13-0.06-0.27-0.13-0.4-0.19v-4.56
			C396.77,281.11,398.17,281.3,399.33,281.45z M391.6,302.75c1.62-9.72,6.41-17.09,15.49-21.44c5.3-2.54,10.92-3.73,16.68-4.57
			c4.03-0.58,8.05-0.31,12.68-0.22c-1.52,2.43-2.57,4.61-4.06,6.4c-4.95,5.96-10.03,11.82-15.13,17.66
			c-2.02,2.31-4.18,4.51-6.33,6.7c-3.81,3.88-8.24,4.59-12.93,1.89c-1.98-1.14-3.75-2.63-5.59-4.01
			C391.62,304.57,391.43,303.76,391.6,302.75z M376.71,307.82c1.06-4.75,1.07-9.53,0.75-14.35c-0.09-1.39,0.27-1.81,1.27-2.03
			c1.11-0.24,1.82,0.3,2.08,1.26c0.49,1.79,0.82,3.62,1.22,5.44c-0.33,3.73-0.96,7.26-2.72,10.53c-0.43,0.8-0.77,1.85-1.92,1.49
			C376.2,309.79,376.53,308.65,376.71,307.82z M363.95,291.98c-1.61-2.94,0.66-7.62,3.93-8.13c1.2-0.19,3.04,0.83,3.81,2.12
			c1.55,2.58,1.23,6.17-0.91,8.3c-0.7,0.69-1.72,1.06-2.34,1.43c-1.57-0.28-2.7-0.6-3.36-1.74
			C364.7,293.31,364.32,292.65,363.95,291.98z M337.52,344.04c0.21,0.16,0.37,0.39,0.68,0.74c-0.94,0.56-1.9,0.62-2.82,0.72
			c-3.81,0.42-7.66,0.64-11.44,1.24c-8.41,1.34-15.92,4.66-21.94,10.84c-3.12,3.21-5.94,6.68-8.31,10.5
			c-0.74,1.19-1.61,2.28-2.36,3.46c-3.12,4.87-7.57,8.15-12.65,10.66c-3.88,1.91-7.81,3.72-11.73,5.56
			c-8.41,3.94-13.05,10.72-15.22,19.59c-1.33,5.44-0.62,10.59,1.7,15.48c1.27,2.67,3.1,5.15,5.5,7.04
			c3.71,2.93,7.84,5.13,12.35,6.49c1.85,0.56,3.84,0.68,5.77,0.94c3.6,0.48,7.2,0.9,10.8,1.36c0.41,0.05,0.82,0.18,1.21,0.32
			c3.1,1.06,6.18,2.13,9.28,3.17c0.68,0.23,1.4,0.34,2.11,0.5c0.1-0.13,0.2-0.26,0.3-0.39c-0.22-0.45-0.32-1.05-0.67-1.33
			c-1.48-1.15-2.94-2.39-4.59-3.24c-4.95-2.57-10.25-3.93-15.85-4.23c-4.57-0.24-9.03-1.34-13.2-3.08
			c-5.89-2.45-9.77-6.74-10.58-13.43c-0.51-4.23-0.21-8.36,0.65-12.48c1.32-6.32,5.32-10.49,10.93-13.22
			c3.7-1.8,7.51-3.38,11.28-5.03c3.54-1.55,6.78-3.6,9.84-5.94c0.88-0.67,1.73-1.44,2.41-2.31c2.02-2.59,4.08-5.16,5.87-7.9
			c2.51-3.82,5.38-7.32,8.54-10.59c3.93-4.07,8.94-6.34,14.21-8.16c3.63-1.26,7.43-1.14,11.15-1.62c2.84-0.36,5.67-0.73,8.5-1.18
			c2.03-0.33,3.81-1.19,5.33-2.67c1.34-1.31,2.92-2.38,4.37-3.59c4.04-3.36,7.69-7.11,11.15-11.06c2.26-2.59,4.3-5.32,5.69-8.5
			c0.16-0.37,0.41-0.71,0.71-1.21c2.53,2.47,5.42,2.36,8.72,1.02c0.26,5.77,0.73,11.2,0.71,16.62c-0.03,11.08-2.77,21.71-6.05,32.18
			c-3.31,10.56-8.49,20.18-15.49,28.79c-4.44,5.46-9.58,10.19-15.39,14.12c-2.41,1.63-5.07,2.98-7.78,4.04
			c-6.9,2.7-13.98,4.9-21.35,5.82c-3.24,0.4-6.58,0.48-9.82,0.18c-1.93-0.18-3.76-1.36-5.5-2.04c-0.37-1.5-0.64-2.79-1.01-4.05
			c-0.24-0.79-0.51-1.7-1.6-1.64c-0.77,0.04-1.09,0.93-1.05,2.21c0.05,1.8,0.14,3.62-0.07,5.4c-0.15,1.2-0.77,2.36-1.21,3.52
			c-0.23,0.6-0.54,1.2,0.09,1.71c0.75,0.62,1.35,0.1,1.79-0.44c0.87-1.07,1.65-2.21,2.56-3.44c1.06,0.74,2.29,1.49,3.39,2.4
			c6.8,5.63,14.55,8.98,23.33,9.92c1.87,0.2,3.75,0.41,5.63,0.48c3.74,0.13,7.15-1.06,9.77-3.62c3.41-3.34,4.72-6.53,2.86-10.7
			c-0.6-1.35-1.71-2.47-2.69-3.83c5.48-2.7,10.25-6.83,15.1-11.06c0.06,4.17-1.24,11.67-2.83,15.37c-0.49-0.82-0.86-1.51-1.29-2.16
			c-0.42-0.64-0.83-1.31-1.38-1.83c-0.93-0.9-1.54-0.87-2.38-0.26c-1.02,0.74-0.73,1.51-0.19,2.35c2.22,3.48,2.72,7.28,1.98,11.26
			c-0.73,3.91-2.63,6.92-6.37,8.77c-3.46,1.71-7.01,2.71-10.85,2.78c-6.23,0.11-12.42-0.25-18.54-1.53c-0.4-0.08-0.84-0.17-1.24-0.1
			c-1.05,0.19-1.47,1.3-0.71,2.04c0.53,0.52,1.24,0.92,1.94,1.18c6.4,2.37,13.04,2.9,19.8,2.4c1.17-0.09,2.35-0.22,4-0.38
			c-0.68,0.59-0.98,0.93-1.35,1.15c-4.39,2.54-8.92,4.53-14.17,4.55c-1.74,0.01-3.37-0.09-5.09-0.44c-4.6-0.94-9.25-1.22-13.93-0.37
			c-0.78,0.14-1.63-0.04-2.43-0.16c-0.89-0.14-1.78-0.35-2.66-0.57c-9.23-2.3-18.15-5.43-26.77-9.46
			c-6.51-3.04-12.36-7.06-18.07-11.32c-3.93-2.93-7.32-6.45-10.61-10.19c2.19-4.28,1.39-7.15-1.58-10.08
			c-2.69-2.66-5.24-5.44-7.39-8.55c-1.39-2.02-3.16-2.47-5.47-1.75c-1.78-3.46-3.56-6.9-5.4-10.45c0.64-0.5,1.21-1.01,1.83-1.44
			c5.57-3.84,10-8.87,14.53-13.83c8.01-8.78,16.29-17.29,25.84-24.45c0.5-0.38,1.01-0.75,1.52-1.11c0.09-0.06,0.23-0.07,0.66-0.19
			c-0.73,1.63-1.42,3.05-2,4.51c-0.46,1.16-0.83,2.36-1.16,3.57c-0.2,0.75,0.02,1.54,0.85,1.61c0.44,0.03,1.15-0.49,1.38-0.94
			c1.32-2.61,2.69-5.22,3.76-7.95c1.65-4.21,4.68-6.28,9.1-6.45c1.87-0.07,3.75-0.04,5.62-0.03c0.7,0,1.41,0.18,2.08,0.09
			c0.41-0.06,1.03-0.44,1.08-0.76c0.08-0.45-0.14-1.2-0.48-1.41c-0.69-0.43-1.53-0.7-2.34-0.81c-1.83-0.25-3.68-0.36-5.95-0.57
			c10.38-6.52,20.25-13.11,31.63-17.84c-0.57,1.57-1.08,2.77-1.42,4.02c-0.17,0.63-0.16,1.37,0.01,2c0.1,0.37,0.64,0.83,1.01,0.86
			c0.36,0.03,0.9-0.37,1.11-0.73c0.45-0.78,0.73-1.66,1.11-2.48c0.53-1.14,1.05-2.29,1.67-3.38c1.1-1.95,2.95-2.83,5.09-2.42
			c0.49,0.09,1.1,0.39,1.35,0.79C321.76,330.88,329.44,337.65,337.52,344.04z M348.7,454.13c-0.51-2.31-0.86-4.66-1.46-6.95
			c-0.58-2.2-1.52-2.46-3.22-1c-3.08,2.64-6.13,5.29-9.76,7.17c-0.43,0.22-0.87,0.56-1.31,0.57c-1.27,0.01-1.56,0.74-1.48,1.77
			c0.07,0.9,0.14,1.81,0.36,2.68c0.5,1.96,1.09,3.89,1.67,5.83c0.44,1.47,0.56,1.58,2.06,1.3c1.21-0.23,2.39-0.59,3.63-0.73
			c-2.57,1.54-5.17,2.93-8.31,2.12c-0.69-3.93-1.37-7.81-2.06-11.77c0.6-0.32,1.13-0.65,1.69-0.89c3.7-1.6,7.04-3.85,9.73-6.77
			c1.91-2.07,4.22-3.57,6.4-5.71c1.46,3.05,2.1,6.11,2.81,9.15c0.19,0.81,0.2,1.68,0.47,2.46c0.91,2.63-0.17,4.37-2.36,5.67
			c-0.03-0.12-0.12-0.32-0.07-0.36C348.86,457.42,349.09,455.88,348.7,454.13z M345.17,460.88c0.18-0.13,0.39-0.23,0.59-0.34
			c0.03,0.08,0.06,0.15,0.09,0.23c-0.35,0.29-0.71,0.57-1.06,0.86c-0.07-0.07-0.14-0.15-0.22-0.22
			C344.76,461.24,344.95,461.04,345.17,460.88z M336.01,455.06c3.15-2.34,5.92-4.41,8.73-6.49c0.12,0.3,0.29,0.73,0.52,1.28
			C342.27,451.58,339.93,454.32,336.01,455.06z M348.62,473.92c-4.11-1.8-8.58-2.78-12.86-4.11c1.95-0.93,4.03-1.89,6.08-2.92
			c2.96-1.5,5.41-3.65,7.69-6.05c1.81-1.91,2.7-4.04,2.39-6.63c-0.28-2.25,0.87-4.13,1.38-6.65c0.66,1.34,1.25,2.23,1.54,3.21
			c1.6,5.42,3.2,10.85,2.91,16.6c-0.02,0.42-0.09,0.88,0.06,1.24c0.16,0.39,0.65,1,0.84,0.94c0.44-0.12,0.93-0.51,1.14-0.92
			c0.2-0.39,0.09-0.96,0.09-1.44c0-2.16-0.02-4.33-0.02-6.49c0-0.24,0.06-0.47,0.14-1.1c3.05,7.21,3.35,14.08,0.6,21.07
			C356.61,478.38,352.79,475.75,348.62,473.92z M356.69,481.15c-6.35,0.19-12.29,0.35-17.87,1.98c-1.59-3.53-3.09-6.87-4.61-10.27
			C342.1,473.91,349.64,476.06,356.69,481.15z M363.17,481.73c2.6,3.95,5.2,7.86,7.76,11.81c2.57,3.96,5.46,7.73,7.06,12.37
			c-0.66,0.35-1.37,0.72-2.37,1.25c-3.72-8.73-8.58-16.48-14.09-23.97C361.93,482.83,362.47,482.36,363.17,481.73z M359.79,451.27
			c3.49,1.92,6.99,3.83,10.56,5.8c-1.23,5.31-3.21,10.64-4.78,12.92C364.64,463.48,363.24,457.15,359.79,451.27z M366.36,451.22
			c-1.85-0.93-3.71-1.85-5.39-2.69c1.02-4.61,2.01-9.07,3.04-13.74c3.71,1.92,6.79,4.39,9.9,7.06
			C372,445.49,369.9,448.87,366.36,451.22z M364.35,431.63c0.6-3.14,1.22-6.45,1.94-10.22c3.05,6.21,5.87,11.96,8.79,17.91
			C371.45,436.72,368.01,434.26,364.35,431.63z M364.39,420.11c-1.02,4.76-1.86,9.55-2.77,14.34c-0.64,3.35-1.21,6.71-1.93,10.04
			c-0.32,1.48-0.96,2.89-1.52,4.53c-1.3-1.43-2.04-2.86-2.28-4.53c-0.53-3.65-1-7.3-2.06-10.86c-0.58-1.94-0.28-3.88,0.79-5.8
			c2.09-3.77,3.97-7.67,4.99-11.91c0.06-0.26,0.23-0.5,0.48-1.01c0.91,0.31,1.73,0.5,2.45,0.87
			C364.67,416.87,364.89,417.79,364.39,420.11z M330.14,429.64c1.17,0.86,2.29,1.78,3.57,2.78c-1.67,1.53-3.51,2.13-5.42,2.4
			c-1.29,0.18-2.63,0.1-3.94,0.05c-4.45-0.18-8.68-1.22-12.69-3.19c-2.29-1.12-4.62-2.15-6.94-3.22c0.02-0.15,0.04-0.29,0.06-0.44
			c9.62-0.21,18.63-3.05,27.73-6.23c1.86,1.82,3.43,3.79,3.28,6.64c-0.05,0.96,0.6,2.14-0.87,2.77c-1.98-2.59-4.49-4.27-8.29-4.33
			C327.63,428.36,329.03,428.83,330.14,429.64z M326.8,457.99c-1.67-0.18-3.11-0.33-4.54-0.49c0-0.1-0.01-0.21-0.01-0.31
			c1.29-0.37,2.58-0.75,3.99-1.16C326.42,456.64,326.56,457.14,326.8,457.99z M237.1,423.89c0.19,0.62,0.29,1.07,0.46,1.49
			c0.29,0.7,0.51,1.48,0.96,2.05c1.83,2.3,3.7,4.56,6.19,6.2c6.93,4.57,13.85,9.16,20.82,13.68c2.53,1.64,5.31,2.74,8.24,3.52
			c5.22,1.4,10.35,3.17,15.75,3.98c-1.37,0.72-2.81,0.61-4.2,0.31c-5.32-1.13-10.58-2.47-15.69-4.4c-3.22-1.22-6.17-2.92-9.05-4.76
			c-6.89-4.4-13.56-9.1-19.97-14.18c-1.13-0.9-2.52-1.48-3.6-2.42c-1.07-0.94-1.9-2.16-2.98-3.44
			C235.21,425.14,236.07,424.57,237.1,423.89z M226.26,426.69c-1.81,0.78-3.9,0.93-5.87,1.31c-0.3,0.06-0.7-0.09-0.98-0.26
			c-1.7-0.99-3.37-2.02-4.4-3.78c-2-3.44-3.99-6.88-5.98-10.33c-0.5-0.86-0.21-1.47,0.63-1.85c0.7-0.32,1.42-0.59,2.13-0.87
			c4.49-1.77,8.86-3.77,12.96-6.34c0.47-0.29,0.95-0.55,1.58-0.9c0.79,1.12,1.46,2.01,2.08,2.94c1.57,2.33,3.37,4.44,5.56,6.23
			c0.91,0.75,1.76,1.61,2.49,2.53c1.88,2.37,1.47,5.08-1.13,6.58C232.38,423.66,229.38,425.33,226.26,426.69z M278.05,256.03
			c4.34-4.41,9.69-5.71,15.58-4.61c10.59,1.99,18.23,11.49,19.75,21.41c0.63,4.1,0.31,8.1-1.41,11.88
			c-3.04,6.69-8.3,10.09-15.23,10.24c-7.3-0.18-12.77-3.22-17.22-8.24c-4.38-4.94-6.7-10.77-6.66-17.38
			C272.89,264.29,274.43,259.72,278.05,256.03z M263.95,271.37c1.12-4.33,2.75-8.47,6.3-11.51c0.21-0.18,0.42-0.37,0.64-0.53
			c0.1-0.07,0.25-0.08,0.61-0.2c-3.9,9.6-2.34,18.51,3,27.02c-3.45,0.3-5.72,2.13-7.88,4.52c-0.25-0.45-0.53-0.88-0.74-1.34
			C263.31,283.55,262.35,277.55,263.95,271.37z M267.51,298.5c-2.01,1.44-3.79,2.72-5.61,4.02c-5.52-5.56-7.94-18.57-2.2-26.72
			C259.52,284.51,262.19,291.99,267.51,298.5z M180.28,404.82c-1.27,0.31-2.56,0.51-3.82,0.76c-0.09-0.37-0.19-0.53-0.14-0.63
			c2.32-4.98,3.27-10.35,4.61-15.62c0.62-2.43,0.65-4.85,0.26-7.27c-1.07-6.61-2.32-13.19-3.32-19.81
			c-0.69-4.62-1.12-9.28-1.59-13.93c-0.24-2.36-0.38-4.73-0.45-7.1c-0.22-6.82,1.18-13.28,4.21-19.43c1.74-3.53,3.68-6.85,6.32-9.81
			c2.65-2.97,5.17-6.06,7.6-9.21c4.2-5.44,9.6-9.54,15.03-13.59c11.03-8.23,23.22-14.14,36.53-17.64c4.47-1.18,9.06-1.58,13.99-1.58
			c-7.05,8.07-8.31,17.12-4.91,26.74c3.42,9.68,10.29,15.72,20.84,17.66c-0.51,0.3-0.86,0.52-1.23,0.74
			c-2.77,1.62-5.68,3.06-8.28,4.91c-8.26,5.86-16.54,11.69-24.55,17.88c-7.51,5.8-14.73,12-22.01,18.1
			c-6.48,5.42-12.9,10.91-19.31,16.42c-3.47,2.99-7.14,5.61-11.53,7.06c-1.41,0.47-2.22,1.33-2.39,2.81c-0.16,1.39,0.66,2.17,2,1.8
			c0.53-0.14,1.02-0.43,1.52-0.69c3.5-1.76,6.81-3.81,9.88-6.27c3.98-3.18,8.15-6.12,12.09-9.36c4.86-3.99,9.64-8.07,14.3-12.29
			c11-9.95,22.62-19.1,34.89-27.42c4.68-3.17,9.37-6.34,13.99-9.59c1.36-0.95,2.62-2.1,3.74-3.33c0.95-1.03,1.97-1.34,3.14-0.81
			c0.85,0.38,1.42,0.1,2.14-0.24c3.14-1.51,6.3-2.99,9.47-4.44c0.63-0.29,1.34-0.36,2.01-0.57c1.93-0.6,3.93-1.04,5.75-1.87
			c2.9-1.32,5.92-2.02,9.05-2.43c0.69-0.09,1.44-0.1,2.04-0.4c0.47-0.23,1.09-0.9,1.02-1.28c-0.07-0.43-0.78-1.01-1.27-1.07
			c-0.94-0.12-1.93,0.07-3.24,0.15c1.18-1.51,2.18-2.8,3.27-4.2c1.66,2.15,3.27,4.16,4.79,6.24c1.06,1.45,2.32,2.53,3.97,3.29
			c4.03,1.86,8.01,3.81,12.02,5.73c-2.15,0.38-4.4,0.88-6.67,1.16c-10.55,1.29-20.28,4.98-29.56,10c-3.13,1.69-6.05,3.77-9.23,5.35
			c-9.56,4.76-17.75,11.6-26.6,17.43c-4.35,2.87-8.42,6.25-12.29,9.76c-7.86,7.14-15.2,14.8-22.38,22.64
			c-3.41,3.72-7.71,6.64-11.75,9.73c-4.18,3.18-8.81,5.66-13.63,7.73C193.92,399.91,187.38,403.11,180.28,404.82z M193.47,423.51
			c-2.1-5.11-3.65-10.4-3.56-16.03c0.01-0.73-0.3-1.47-0.5-2.34c4.37-1.68,8.85-3.39,13.44-5.15c1.85,3.19,2.59,6.92,4.88,10.06
			c-0.15,0.28-0.32,0.75-0.61,1.1c-1.24,1.46-1.33,1.64-0.46,3.24c1.81,3.31,3.71,6.56,5.52,9.87c1.47,2.67,3.84,4.28,6.55,5.28
			c1.44,0.53,3.15,0.35,4.94,0.51c1.8,3.58,4.74,6.18,7.68,8.75c7.13,6.25,14.98,11.42,23.71,15.19c0.5,0.22,0.99,0.47,1.42,0.98
			c-1.94-0.27-3.9-0.49-5.83-0.8c-12.59-2.06-24.82-5.3-36.37-10.84c-0.75-0.36-1.51-0.73-2.25-1.12
			c-8.01-4.14-8.75-4.58-14.39-11.48C195.91,428.58,194.52,426.06,193.47,423.51z M197.72,435.7c0.71,0.68,1.26,1.25,1.86,1.76
			c1.91,1.62,3.66,3.53,5.81,4.74c3.76,2.1,7.73,3.83,11.68,5.58c11.7,5.18,24.06,7.92,36.66,9.82c9.03,1.36,18.07,1.23,27.15,0.95
			c7.02-0.21,13.88-1.29,20.73-2.59c1.34-0.25,2.72-0.33,4.07-0.49c0.05,0.15,0.1,0.31,0.15,0.46c-3.36,1.86-4.23,4.96-4.08,8.39
			c0.18,4.18,0.56,8.35,0.91,12.53c0.48,5.7,1.38,11.37,1.1,17.12c-0.04,0.93-0.23,1.85-0.36,2.85c-3.05-1.73-5.75-3.47-8.62-4.87
			c-12.23-5.95-24.46-11.91-36.78-17.66c-9.38-4.37-18.45-9.28-27.23-14.73c-0.86-0.53-1.89-0.79-2.83-1.21
			c-0.43-0.19-0.86-0.41-1.23-0.7c-6.46-5.08-13.63-8.69-21.67-10.47c-3.47-0.77-6.93-0.65-10.35,0.37
			c-0.64,0.19-1.28,0.37-2.24,0.65C195.26,444.32,196.34,440.12,197.72,435.7z M243.92,476.58c-0.95-2.45-2.23-4.77-3.36-7.16
			c0.12-0.05,0.28-0.16,0.36-0.12c6.65,3.7,13.6,6.77,20.57,9.79c3.13,1.36,6.16,2.96,9.27,4.37c1.23,0.56,2,1.19,2.11,2.72
			c0.15,2.2,0.65,4.38,1.02,6.65c-7.96,3.18-16.01,4.94-24.46,5.46C249.93,490.42,246.63,483.56,243.92,476.58z M218.52,579.43
			c-0.02,1.11,0,2.22,0,3.7c-8.77-0.39-17.26-0.46-25.77-1.5c0-1.15-0.07-2.19,0.01-3.21c0.33-4.03,0.86-8.06,1.03-12.1
			c0.29-6.92,2.09-13.47,4.29-19.98c3.36-9.95,9.19-18.28,16.39-25.76c1.34-1.4,2.81-2.68,4.25-3.98c0.23-0.2,0.62-0.3,0.94-0.32
			c7.81-0.39,15.62-0.85,23.43,0.04c0.06,0.01,0.12,0.06,0.36,0.18c-0.31,0.36-0.54,0.76-0.88,1.02
			c-8.26,6.37-13.22,15.01-16.81,24.56c-2.14,5.68-4.21,11.4-5.41,17.37C219.01,566.03,218.64,572.73,218.52,579.43z M236.74,584.56
			c-1.89-1.22-4.01-0.86-6.08-0.93c-3.2-0.1-6.4-0.25-9.71-0.39c-0.07-0.45-0.21-0.84-0.19-1.23c0.44-7.45,0.81-14.92,2.5-22.21
			c1.71-7.34,4.11-14.5,7.22-21.36c3.42-7.52,8.12-14.15,14.99-19.02c0.89-0.63,1.63-1.47,2.65-2.41c0.18,0,0.74-0.16,1.13,0.03
			c1.61,0.81,2.98,0.19,4.34-0.6c1.69-0.98,3.35-1.99,5.18-3.08c0.71,1.09,1.46,2.23,2.28,3.48c-0.35,0.42-0.67,0.86-1.03,1.25
			c-1.52,1.63-3.05,3.26-4.59,4.88c-7.51,7.91-12.39,17.24-15.39,27.69c-2.23,7.77-3.49,15.64-3.65,23.7
			c-0.06,2.93,0.21,5.85,1.1,8.68c0.14,0.43,0.11,0.91,0.19,1.59C237.14,584.6,236.89,584.65,236.74,584.56z M328.4,542.92
			c0.46,0.67,1.04,1.27,1.73,2.1c-2.59,0.3-4.99,0.1-7.38,0.07c-3.98-0.05-7.96-0.1-11.94-0.14c-0.28,0-0.61-0.05-0.83,0.08
			c-1.72,0.96-3.21,0.13-4.73-0.54c-6.64-2.93-13.61-4.51-20.81-5.22c-3.75-0.37-7.48-0.9-11.23-1.27
			c-1.17-0.12-2.38-0.04-3.55,0.09c-0.95,0.11-1.7,0.57-1.46,1.79c8.28,0.13,16.31,1.64,24.25,3.33
			c12.03,2.56,22.85,7.72,31.28,17.06c1.03,1.14,2.08,2.25,3.25,3.51c-0.61,0.34-1.05,0.63-1.53,0.84
			c-5.41,2.37-10.97,3.98-16.96,4.13c-2.5,0.06-4.78-0.23-7.16-0.94c-8.63-2.57-17.42-4.49-26.32-5.89
			c-3.93-0.62-7.85-1.28-11.78-1.9c-0.68-0.11-1.39-0.2-2.08-0.15c-0.99,0.07-1.5,0.64-1.34,1.7c4.09,0.8,8.17,1.62,12.24,2.41
			c11.86,2.29,23.64,4.88,34.95,9.24c3.5,1.35,6.89,3,10.71,4.68c-1.92,1.75-3.73,2.6-5.62,3.3c-4.86,1.8-9.93,2.74-14.99,3.8
			c-6.81,1.42-13.68,1.84-20.6,1.93c-5.13,0.06-10.14-0.76-15.13-1.87c-1.4-0.31-2.86-0.41-4.6-0.65c-2.32-2.3-2.99-5.55-2.94-9.07
			c0.05-3.43,0.75-6.64,2.86-9.45c0.62-0.82,1.33-1.64,1.7-2.58c0.34-0.87,0.39-1.89,0.38-2.85c-0.03-3.15,0.12-6.27,0.91-9.35
			c0.73-2.85,2.1-5.3,4.17-7.38c0.48-0.49,0.91-1.02,1.36-1.53c-1.28-1.37-1.91-1.5-3.24-0.56c-1.63,1.14-2.87,2.66-3.76,4.43
			c-1.34,2.65-2.1,5.49-2.21,8.44c-0.11,2.7,0.03,5.41,0.05,8.28c-3.61,2.09-5.09,5.74-5.52,9.92c-0.41,4.02,0.03,7.94,2.26,11.7
			c-1.9,0.22-3.57-0.22-5.2-0.58c-1.42-0.31-2.77-0.95-4.17-1.34c-1.03-0.29-2.11-0.4-3.52-0.65c-0.17-1.78-0.57-3.92-0.53-6.06
			c0.2-11.58,2.59-22.73,7.17-33.35c2.44-5.66,5.64-10.92,9.94-15.41c2.61-2.72,5.2-5.47,7.84-8.16c0.41-0.42,1-0.82,1.55-0.9
			c2.11-0.29,4.25-0.45,6.73-0.69c-0.85,1.07-1.5,1.95-2.21,2.78c-2.91,3.37-4.72,7.27-5.36,11.64c-0.32,2.19-0.22,4.45-0.19,6.67
			c0.01,0.82,0.31,1.66,1.62,1.83c0.12-0.52,0.24-1.03,0.34-1.53c0.71-3.34,1.25-6.72,2.18-10c1.29-4.58,4.56-7.93,7.68-11.33
			c0.35-0.38,1.1-0.52,1.67-0.53c9.45-0.12,18.34,2.54,27.03,5.86c4.19,1.6,7.8,4.34,11.14,7.34
			C320.9,533.9,325.05,538.05,328.4,542.92z M369.47,522.64c-1.94-0.24-3.7-0.46-5.6-0.7c0.48-1.6,1.59-2.76,3.34-3.24
			c1.97-0.53,3.42,0.07,4.67,1.82C371.02,521.28,370.14,522.05,369.47,522.64z M408.01,493.6c0.55,1.43,0.54,2.53-0.18,3.92
			c-2.6,4.98-6.03,9.21-10.49,12.62c-0.75,0.57-1.49,0.91-2.47,0.91c-2.86,0-5.5,0.81-7.93,2.33c-1.24,0.78-2.49,1.56-3.71,2.37
			c-1.75,1.16-3.47,2.37-4,4.3c-1.93-0.22-3.69-0.42-5.65-0.64c-1.9-2.79-5.2-3.72-8.36-2.14c-2.7,1.35-3.92,3.54-3.31,5.42
			c-1.56,2.45-3,4.72-4.59,7.22c-0.39-0.12-1.12-0.28-1.81-0.56c-5.78-2.32-11.49-1.74-17.16,0.36c-1.63,0.6-2.87,1.69-3.72,3.23
			c-2.66-2.77-4.17-3.64-10.08-0.28c-0.46-0.4-0.96-0.85-1.47-1.3c-2.3-2.04-4.54-4.14-6.91-6.09c-5.98-4.92-13.09-7.34-20.49-9.05
			c-2.45-0.57-4.89-1.17-7.35-1.64c-1.43-0.27-2.9-0.4-4.35-0.44c-3.21-0.1-6.43-0.26-9.63-0.09c-2.78,0.14-5.55,0.6-8.28,1.13
			c-1.25,0.24-2-0.01-2.61-1.05c-0.64-1.08-1.42-2.08-1.93-3.22c-0.41-0.91-0.99-1.46-1.88-1.81c-1.37-0.54-1.76-0.43-2.74,0.6
			c-0.55,0.58-1.2,1.19-1.92,1.48c-1.94,0.76-3.95,1.36-5.94,1.99c-0.32,0.1-0.7,0.08-1.03,0.03c-5.25-0.82-10.51-1.42-15.84-1.08
			c-0.18,0.01-0.36-0.13-0.88-0.32c0.72-0.59,1.27-1.05,1.84-1.5c2.32-1.84,4.31-3.97,5.77-6.56c0.65-1.15,1.04-2.35,0.69-4.17
			c-1.95,2.27-3.65,4.24-5.52,6.41c0.13-2.12,0.45-3.94,0.3-5.72c-0.15-1.84-0.77-3.63-1.43-5.45c-0.73,6.03-2.16,11.81-4.75,17.42
			c-1.21,0.06-2.38,0.11-3.55,0.18c-1.39,0.08-2.78,0.21-4.18,0.26c-0.54,0.02-1.16,0.02-1.62-0.21
			c-6.94-3.51-14.38-4.97-22.06-4.91c-5.64,0.04-11.28,0.67-16.92,1.11c-0.73,0.06-1.51,0.37-2.1,0.8c-0.34,0.24-0.51,1-0.41,1.45
			c0.07,0.3,0.73,0.68,1.13,0.68c1.81,0.01,3.63-0.06,5.44-0.17c7.13-0.42,14.24-0.44,21.32,0.6c1.77,0.26,3.51,0.77,5.24,1.55
			c-2.76,0.44-5.52,0.86-8.27,1.31c-7.31,1.21-14.49,2.92-21.52,5.28c-0.92,0.31-1.81,0.73-2.64,1.23
			c-0.78,0.46-1.25,1.24-0.75,2.13c0.54,0.96,1.28,0.55,2.15,0.25c3.03-1.02,6.1-1.97,9.21-2.75c7.52-1.88,15.19-2.99,22.87-3.97
			c0.46-0.06,0.93-0.01,1.73-0.01c-0.53,0.61-0.86,1.01-1.21,1.4c-5.68,6.47-11.07,13.14-14.53,21.14
			c-2.92,6.75-5.36,13.65-6.3,20.97c-0.43,3.38-0.43,6.82-0.67,10.23c-0.23,3.4-0.52,6.79-0.8,10.42c-1.25-0.15-2.54-0.26-3.82-0.46
			c-13.82-2.17-27.37-5.4-40.48-10.33c-3.57-1.34-2.99-0.61-2.98-4.45c0.02-5.52,0.03-11.04,0.3-16.55
			c0.14-2.77,0.72-5.54,1.35-8.25c3.61-15.49,8.93-30.39,16.06-44.6c4.93-9.83,11.21-18.82,17.75-27.64
			c4.76-6.42,10.74-11.46,17.09-16.23c3.02-2.27,6.04-2.18,9.27-1.75c3.76,0.51,7.28,1.9,10.7,3.52c4.3,2.04,8.49,4.25,12.1,7.42
			c0.63,0.55,1.59,0.71,2.37,1.11c1.92,0.98,3.82,1.98,5.72,2.99c0.16,0.08,0.23,0.33,0.33,0.52c3.92,7.55,7.92,15.07,10.18,23.35
			c0.72,2.64,1.24,5.29,1.27,8.03c0.02,1.54,1.57,3.31,3.11,3.26c2.51-0.08,5.02-0.26,7.5-0.59c4.92-0.65,9.71-1.88,14.37-3.65
			c4.02-1.54,4.55-2.23,4.21-6.49c-0.12-1.5-0.54-2.97-0.85-4.63c0.59,0.23,1.03,0.36,1.45,0.56c8.72,4.08,17.5,8.05,25.82,12.95
			c0.41,0.24,0.88,0.5,1.34,0.53c0.33,0.02,0.94-0.26,0.99-0.5c0.38-1.8,2.15-3.02,1.93-5.13c-0.19-1.79,0.18-3.63,0.02-5.42
			c-0.64-7.3-1.43-14.59-2.06-21.89c-0.15-1.79-0.05-3.64,0.23-5.41c0.33-2.1,1.93-3.28,3.99-3.68c2.76-0.54,5.2-0.21,7.41,1.68
			c2.81,2.41,5.7,4.72,8.59,7.03c2.44,1.96,4.58,4.07,5.99,7c1.76,3.65,3.83,7.12,4.38,11.24c0.28,2.1,1.13,2.56,3.2,2.05
			c2.3-0.56,4.58-1.3,6.91-1.63c3.17-0.46,6.39-0.6,9.58-0.88c0.35-0.03,0.73,0.07,1.04-0.04c2.56-0.86,3.89,0.62,5.04,2.56
			c3.34,5.65,6.71,11.28,10.09,16.91c0.46,0.76,1.07,1.43,1.57,2.18c0.26,0.38,0.41,0.83,0.62,1.24c0.59,1.11,1.1,2.37,2.6,2.42
			c1.39,0.04,2.38-0.64,2.85-2.01c0.08-0.23,0.3-0.45,0.51-0.59c1.43-0.97,1.39-0.94,0.82-2.35c-1.78-4.36-4.22-8.33-6.92-12.16
			c-3.1-4.39-6.18-8.79-9.38-13.33c0.32-0.62,0.62-1.31,1.02-1.95c3.6-5.8,6-12.11,7.85-18.64c0.3-1.07,0.41-2.12-1.11-2.42
			c-0.21-0.04-0.37-0.36-0.52-0.58c-0.6-0.84-1.18-1.7-1.91-2.75c2.8-2.25,5.19-5.1,6.76-8.93c0.61,0.62,1.13,1.11,1.61,1.64
			c1.73,1.9,1.87,1.91,4.01,0.03c2.16,2.92,4.37,5.78,6.45,8.73c1.36,1.94,2.62,3.97,3.75,6.05
			C397.73,471.15,403.55,482.04,408.01,493.6z M455.5,380.99c-1.39,10.58-2.94,21.14-5.18,31.58c-0.21,1-0.67,1.76-1.47,2.42
			c-8.92,7.29-17.77,14.67-26.74,21.9c-8.18,6.58-16.84,12.43-26.48,16.72c-0.95,0.42-1.86,0.95-2.9,1.48
			c-0.33-0.5-0.72-1.07-1.09-1.65c-3.49-5.41-7.3-10.57-11.98-15.04c-0.7-0.67-1.28-1.45-2.4-1.55c-0.35-0.03-0.77-0.53-0.97-0.92
			c-2.62-5.08-5.21-10.19-7.8-15.29c-0.12-0.24-0.17-0.53-0.25-0.79c-1.44-4.87-2.7-6.19-7.48-7.68c0.09-0.51,0.18-1.03,0.29-1.56
			c0.66-3.14,1.38-6.26,1.97-9.41c0.24-1.29,0.49-2.68,0.28-3.94c-0.33-1.98,0.57-3.38,1.38-5.01c1.48-2.98,3.57-4.79,6.82-5.79
			c3.98-1.23,7.76-3.11,11.65-4.66c0.96-0.39,1.6-0.97,2.1-1.89c2.08-3.83,2.11-3.82,6.45-5.15c1.88-0.58,2.03-0.82,1.36-2.64
			c-0.43-1.18-0.91-2.35-1.48-3.46c-0.78-1.5-1.16-2.96-0.3-4.55c0.16-0.3,0.18-0.67,0.31-1.21c19.99,11.74,41.72,13.68,64.53,11.94
			C455.89,377.01,455.76,379.01,455.5,380.99z M456.41,371.6c-1.74,0.22-3.44,0.57-5.15,0.64c-8.31,0.34-16.59,0.13-24.89-0.57
			c-9.89-0.83-19.09-3.88-28.1-7.74c-1.85-0.79-3.57-1.89-5.34-2.87c-0.88-0.48-1.18-1.2-1.17-2.24c0.06-5.44,0.04-10.88,0.05-16.32
			c0-0.39,0.04-0.78,0.07-1.41c0.6,0.31,1.04,0.5,1.43,0.75c7.12,4.58,15.09,6.84,23.31,8.26c9.33,1.62,18.76,1.54,28.19,1.33
			c4.54-0.1,9.05-0.56,13.47-1.65c0.19-0.05,0.4-0.01,0.81-0.01C458.21,357.02,457.32,364.18,456.41,371.6z M459.32,346.53
			c-3.28,0.48-6.91,1.15-10.57,1.51c-8.5,0.81-17.02,0.63-25.51-0.03c-10.75-0.83-21.01-3.53-30.42-8.98c-0.43-0.25-1-0.75-1-1.15
			c-0.07-3.9-0.24-7.82,0.98-11.62c0.06-0.19,0.19-0.36,0.28-0.52c0.17,0.04,0.33,0.03,0.42,0.1c5.67,5.12,12.48,7.45,19.97,8.04
			c7.89,0.63,15.75,0.02,23.59-0.78c4.99-0.51,9.98-1.1,14.94-1.82c2.61-0.38,5.17-1.12,7.74-1.72c0.6-0.14,1.19-0.34,1.86-0.54
			c0.98,1.04,1.93,2.04,3.01,3.19C462.9,336.82,461.18,341.48,459.32,346.53z"/>
	</g>
</g>
</svg>
